<?xml version="1.0" encoding="UTF-8" standalone="no"?>
<!-- Created with Inkscape (http://www.inkscape.org/) -->

<svg
   xmlns:dc="http://purl.org/dc/elements/1.1/"
   xmlns:cc="http://creativecommons.org/ns#"
   xmlns:rdf="http://www.w3.org/1999/02/22-rdf-syntax-ns#"
   xmlns:svg="http://www.w3.org/2000/svg"
   xmlns="http://www.w3.org/2000/svg"
   version="1.1"
   width="200"
   height="200"
   id="svg3640">
  <defs
     id="defs3642" />
  <metadata
     id="metadata3645">
    <rdf:RDF>
      <cc:Work
         rdf:about="">
        <dc:format>image/svg+xml</dc:format>
        <dc:type
           rdf:resource="http://purl.org/dc/dcmitype/StillImage" />
        <dc:title></dc:title>
      </cc:Work>
    </rdf:RDF>
  </metadata>
  <g
     transform="translate(0,-852.36218)"
     id="layer1">
    <g
       transform="matrix(2.7777716,0,0,-2.7777716,-1451.256,1952.3595)"
       id="g4671">
      <g
         transform="translate(539.2129,344.9687)"
         id="g20">
        <path
           d="m 0,0 c 2.222,1.032 4.007,1.789 5.728,2.675 1.793,0.922 3.369,1.016 5.448,0.353 8.12,-2.586 15.946,-1.89 22.73,3.719 6.156,5.093 6.191,13.101 0.329,18.454 C 26.434,32.323 11.95,32.304 4.136,25.159 -0.112,21.275 -1.693,15.573 1.222,11.165 3.216,8.146 2.742,5.905 1.322,3.229 0.868,2.373 0.579,1.429 0,0 m -0.282,36.837 c -1.117,3.14 -2.065,5.903 -3.082,8.642 -0.633,1.702 -0.734,3.313 1.268,3.971 1.875,0.617 2.736,-0.771 3.296,-2.315 1.063,-2.927 2.18,-5.838 3.148,-8.798 0.375,-1.144 0.946,-1.5 2.115,-1.497 8.503,0.048 17.004,0.048 25.506,0 1.173,-0.003 1.716,0.353 2.088,1.514 0.953,2.962 2.082,5.869 3.154,8.793 0.563,1.536 1.444,2.931 3.303,2.307 1.979,-0.663 1.903,-2.308 1.275,-4.001 -1.015,-2.739 -1.993,-5.493 -3.116,-8.6 2.004,0 3.745,0.074 5.479,-0.016 3.194,-0.165 5.29,-2.302 5.435,-5.482 0.056,-1.252 0.046,-2.508 0.002,-3.759 -0.062,-1.762 -0.443,-3.516 2.408,-3.476 1.066,0.017 1.856,-1.307 1.861,-2.623 C 53.87,17.919 53.877,14.34 53.859,10.759 53.852,9.087 52.938,7.884 51.347,7.811 49.706,7.736 49.48,7.058 49.573,5.691 49.678,4.178 49.63,2.648 49.589,1.131 49.498,-2.253 47.236,-4.649 43.889,-4.659 27.42,-4.7 10.954,-4.699 -5.514,-4.662 c -3.41,0.005 -5.643,2.3 -5.776,5.707 -0.042,1.074 -0.042,2.15 -0.005,3.224 0.064,1.835 0.399,3.661 -2.478,3.743 -1.185,0.035 -1.784,1.311 -1.774,2.64 0.023,3.58 0.003,7.159 0.008,10.741 0.002,1.815 0.907,2.954 2.726,2.918 1.474,-0.029 1.557,0.685 1.526,1.802 -0.05,1.789 -0.07,3.585 0.016,5.367 0.154,3.096 2.162,5.151 5.25,5.336 1.783,0.11 3.576,0.021 5.739,0.021"
           id="path22"
           style="fill:#333;fill-opacity:1;fill-rule:evenodd;stroke:none" />
      </g>
      <g
         transform="translate(558.3516,325.4648)"
         id="g24">
        <path
           d="m 0,0 c -11.178,0 -22.358,0.028 -33.536,-0.033 -1.653,-0.008 -2.23,0.3 -2.319,2.162 -0.371,7.621 1.567,9.136 8.811,9.07 18.689,-0.178 37.381,-0.058 56.073,-0.059 5.294,0 6.996,-1.731 7.011,-7.089 0,-0.627 -0.075,-1.264 0.013,-1.877 C 36.311,0.377 35.546,-0.053 33.805,-0.04 22.537,0.038 11.27,0 0,0"
           id="path26"
           style="fill:#333;fill-opacity:1;fill-rule:evenodd;stroke:none" />
      </g>
      <g
         transform="translate(565.8984,360.5747)"
         id="g28">
        <path
           d="M 0,0 C -1.755,0.145 -2.894,1.258 -2.854,3.063 -2.813,4.986 -1.625,6.195 0.437,6.081 2.379,5.97 3.344,4.692 3.278,2.896 3.21,1.065 2.07,0.018 0,0"
           id="path30"
           style="fill:#333;fill-opacity:1;fill-rule:evenodd;stroke:none" />
      </g>
      <g
         transform="translate(550.7124,360.5801)"
         id="g32">
        <path
           d="M 0,0 C -1.986,-0.012 -3.003,1.125 -3.257,2.889 -3.5,4.58 -1.884,6.134 -0.101,6.098 1.858,6.053 2.913,4.846 2.942,3.072 2.97,1.279 1.902,0.109 0,0"
           id="path34"
           style="fill:#333;fill-opacity:1;fill-rule:evenodd;stroke:none" />
      </g>
    </g>
  </g>
</svg>
