<?xml version="1.0" encoding="UTF-8" standalone="no"?>
<!-- Created with Inkscape (http://www.inkscape.org/) -->

<svg
   xmlns:dc="http://purl.org/dc/elements/1.1/"
   xmlns:cc="http://creativecommons.org/ns#"
   xmlns:rdf="http://www.w3.org/1999/02/22-rdf-syntax-ns#"
   xmlns:svg="http://www.w3.org/2000/svg"
   xmlns="http://www.w3.org/2000/svg"
   version="1.1"
   width="200"
   height="200"
   id="svg3640">
  <defs
     id="defs3642" />
  <metadata
     id="metadata3645">
    <rdf:RDF>
      <cc:Work
         rdf:about="">
        <dc:format>image/svg+xml</dc:format>
        <dc:type
           rdf:resource="http://purl.org/dc/dcmitype/StillImage" />
        <dc:title></dc:title>
      </cc:Work>
    </rdf:RDF>
  </metadata>
  <g
     transform="translate(0,-852.36218)"
     id="layer1">
    <g
       transform="matrix(2.7777755,0,0,-2.7777755,-3183.2813,1952.3607)"
       id="g4168">
      <g
         transform="translate(1199.1191,336.6572)"
         id="g232">
        <path
           d="m 0,0 0,0.995 c 0,1.687 -0.009,3.375 0.006,5.063 0.009,0.928 0.417,1.357 1.337,1.463 0.247,0.029 0.496,0.04 0.744,0.06 2.57,0.212 4.323,1.505 5.244,3.926 0.654,1.722 0.761,3.516 0.595,5.312 -0.349,3.78 -2.064,6.639 -6.661,6.754 -0.829,0.022 -1.252,0.531 -1.259,1.434 -0.014,1.992 -0.005,3.984 -0.005,5.975 -0.001,0.29 0,0.582 0,0.852 l -42.555,0 c 0,-2.189 0,-4.316 0.001,-6.442 0,-1.424 -0.299,-1.748 -1.709,-1.851 -3.287,-0.243 -5.205,-1.879 -5.953,-5.122 -0.475,-2.055 -0.461,-4.125 0.08,-6.158 0.641,-2.403 2.094,-4.053 4.621,-4.567 0.486,-0.097 0.988,-0.112 1.483,-0.161 1.078,-0.104 1.468,-0.512 1.474,-1.588 0.01,-1.633 0.004,-3.265 0.006,-4.896 L -42.551,0 0,0 z m -45.154,26.058 c 0,2.307 -0.004,4.518 0.001,6.729 0.003,1.255 0.446,1.71 1.687,1.71 14.774,0.003 29.547,0.004 44.32,0.003 1.302,0 1.749,-0.45 1.75,-1.737 l 0,-6.697 C 5.103,25.668 7.107,24.5 8.536,22.441 9.99,20.349 10.575,17.982 10.563,15.468 10.548,13.014 9.976,10.698 8.551,8.656 7.117,6.602 5.138,5.392 2.603,5.021 2.603,3.052 2.604,1.148 2.602,-0.755 2.6,-2.234 2.208,-2.633 0.746,-2.634 c -14.69,-0.002 -29.381,-0.003 -44.071,-0.003 -1.413,0 -1.831,0.421 -1.83,1.823 10e-4,1.715 -0.004,3.431 0.004,5.146 0.002,0.377 0.008,0.686 -0.489,0.791 -4.375,0.921 -6.516,3.94 -7.255,8.066 -0.661,3.692 -0.012,7.166 2.502,10.113 1.352,1.582 3.141,2.399 5.239,2.756"
           id="path234"
           style="fill:#333;fill-opacity:1;fill-rule:evenodd;stroke:none" />
      </g>
      <g
         transform="translate(1203.708,383.1797)"
         id="g236">
        <path
           d="m 0,0 c -5.396,-1.273 -10.659,-2.512 -15.924,-3.754 -8.73,-2.061 -17.461,-4.123 -26.191,-6.184 -0.161,-0.038 -0.325,-0.061 -0.489,-0.09 -0.803,-0.148 -1.459,0.2 -1.643,0.874 -0.197,0.716 0.223,1.41 1.037,1.614 1.82,0.455 3.648,0.883 5.476,1.312 12.601,2.965 25.203,5.927 37.804,8.893 1.512,0.355 1.962,0.056 2.31,-1.477 0.399,-1.748 0.828,-3.491 1.289,-5.225 0.063,-0.242 0.398,-0.609 0.581,-0.594 4.384,0.348 8.194,-3.279 9.448,-7.635 0.764,-2.651 0.83,-5.281 -0.177,-7.886 -0.825,-2.131 -2.259,-3.706 -4.333,-4.691 -0.17,-0.081 -0.335,-0.177 -0.558,-0.297 0.472,-1.967 0.943,-3.92 1.41,-5.874 0.058,-0.241 0.12,-0.485 0.14,-0.73 0.059,-0.763 -0.359,-1.359 -1.056,-1.445 -0.731,-0.09 -1.251,0.252 -1.432,0.965 -0.515,2.034 -0.999,4.075 -1.493,6.114 -0.117,0.482 -0.251,0.963 -0.337,1.451 -0.174,0.988 0.116,1.423 1.066,1.737 0.523,0.172 1.054,0.341 1.545,0.587 1.939,0.969 3,2.58 3.202,4.713 0.266,2.813 -0.321,5.463 -1.92,7.808 -1.42,2.082 -3.431,2.958 -5.962,2.527 C 2.082,-7.578 1.776,-7.363 1.38,-5.698 0.935,-3.823 0.473,-1.953 0,0"
           id="path238"
           style="fill:#333;fill-opacity:1;fill-rule:evenodd;stroke:none" />
      </g>
      <g
         transform="translate(1190.9736,357.8555)"
         id="g240">
        <path
           d="m 0,0 c -0.272,-0.47 -0.399,-0.85 -0.653,-1.105 -3.586,-3.612 -7.187,-7.21 -10.793,-10.803 -0.617,-0.613 -1.389,-0.64 -1.918,-0.124 -0.551,0.535 -0.555,1.288 0.067,1.912 3.61,3.628 7.235,7.242 10.854,10.861 0.431,0.431 0.968,0.65 1.496,0.324 C -0.573,0.836 -0.332,0.389 0,0"
           id="path242"
           style="fill:#333;fill-opacity:1;fill-rule:evenodd;stroke:none" />
      </g>
      <g
         transform="translate(1180.375,356.8477)"
         id="g244">
        <path
           d="M 0,0 C 0.045,0.671 -0.294,0.938 -0.948,0.94 -1.608,0.941 -1.904,0.65 -1.897,-0.014 -1.89,-0.671 -1.596,-0.97 -0.936,-0.968 -0.273,-0.967 0.037,-0.665 0,0 M -0.98,3.532 C 0.84,3.542 2.6,1.801 2.598,-0.009 2.594,-1.772 0.861,-3.531 -0.903,-3.563 c -1.759,-0.032 -3.585,1.777 -3.595,3.558 -0.009,1.74 1.769,3.528 3.518,3.537"
           id="path246"
           style="fill:#333;fill-opacity:1;fill-rule:evenodd;stroke:none" />
      </g>
      <g
         transform="translate(1188.6123,346.7422)"
         id="g248">
        <path
           d="m 0,0 c 0.593,-0.068 0.926,0.215 0.936,0.878 0.008,0.604 -0.18,1 -0.874,1.017 C -0.605,1.91 -0.983,1.658 -0.987,0.955 -0.989,0.327 -0.729,-0.036 0,0 M 3.511,0.952 C 3.526,-0.822 1.807,-2.586 0.044,-2.603 -1.764,-2.62 -3.557,-0.875 -3.572,0.918 -3.588,2.685 -1.764,4.504 0.008,4.489 1.769,4.475 3.495,2.73 3.511,0.952"
           id="path250"
           style="fill:#333;fill-opacity:1;fill-rule:evenodd;stroke:none" />
      </g>
      <g
         transform="translate(1168.625,353.8906)"
         id="g252">
        <path
           d="M 0,0 C 1.216,0.001 2.432,0.007 3.646,-0.001 4.602,-0.008 5.225,-0.553 5.201,-1.34 5.179,-2.097 4.584,-2.597 3.654,-2.599 c -2.486,-0.007 -4.972,-0.008 -7.459,0 -0.968,0.003 -1.58,0.544 -1.554,1.336 0.024,0.758 0.617,1.251 1.546,1.258 C -2.541,0.006 -1.271,-0.001 0,0"
           id="path254"
           style="fill:#333;fill-opacity:1;fill-rule:evenodd;stroke:none" />
      </g>
    </g>
  </g>
</svg>
