<?xml version="1.0" encoding="UTF-8" standalone="no"?>
<!-- Created with Inkscape (http://www.inkscape.org/) -->

<svg
   xmlns:dc="http://purl.org/dc/elements/1.1/"
   xmlns:cc="http://creativecommons.org/ns#"
   xmlns:rdf="http://www.w3.org/1999/02/22-rdf-syntax-ns#"
   xmlns:svg="http://www.w3.org/2000/svg"
   xmlns="http://www.w3.org/2000/svg"
   version="1.1"
   width="200"
   height="200"
   id="svg3640">
  <defs
     id="defs3642" />
  <metadata
     id="metadata3645">
    <rdf:RDF>
      <cc:Work
         rdf:about="">
        <dc:format>image/svg+xml</dc:format>
        <dc:type
           rdf:resource="http://purl.org/dc/dcmitype/StillImage" />
        <dc:title></dc:title>
      </cc:Work>
    </rdf:RDF>
  </metadata>
  <g
     transform="translate(0,-852.36218)"
     id="layer1">
    <g
       transform="matrix(2.7777751,0,0,-2.7777751,-2507.2201,1952.3606)"
       id="g4445">
      <g
         transform="translate(931.8496,330.4717)"
         id="g214">
        <path
           d="m 0,0 0,7.05 11.149,0 0,11.797 -10.055,0 c 0,1.722 -0.027,3.351 0.011,4.979 0.017,0.701 -0.082,1.327 -0.519,1.867 -0.524,0.65 -0.679,1.394 -0.628,2.236 0.053,0.851 0.012,1.709 0.012,2.702 -0.697,0 -1.351,0.04 -1.996,-0.014 -0.485,-0.039 -0.695,0.211 -0.862,0.61 -0.488,1.169 -0.208,2.614 0.755,3.438 0.354,0.304 0.404,0.58 0.365,1.019 -0.174,2.036 -0.194,4.066 0.351,6.061 0.742,2.717 2.429,4.417 5.024,5.082 2.09,0.536 4.206,0.528 6.296,-0.007 2.934,-0.75 4.841,-2.975 5.231,-6.287 0.189,-1.609 0.069,-3.258 0.13,-4.887 0.011,-0.316 0.128,-0.722 0.339,-0.923 1.521,-1.457 1.25,-3.897 -0.556,-4.962 -0.272,-0.159 -0.49,-0.491 -0.639,-0.794 -0.604,-1.233 -1.173,-2.486 -1.755,-3.73 -0.088,-0.188 -0.251,-0.376 -0.253,-0.564 -0.018,-1.981 -0.011,-3.961 -0.011,-5.973 1.347,-0.296 2.652,-0.544 3.937,-0.874 4.658,-1.195 8.64,-3.577 11.886,-7.338 0.745,-0.862 1.09,-1.665 1.05,-2.816 C 29.184,5.423 29.239,3.167 29.239,0.915 L 29.239,0 0,0 z"
           id="path216"
           style="fill:#333;fill-opacity:1;fill-rule:evenodd;stroke:none" />
      </g>
      <g
         transform="translate(957.7168,363.3369)"
         id="g218">
        <path
           d="m 0,0 c 1.342,-0.296 2.645,-0.543 3.926,-0.872 4.681,-1.203 8.688,-3.594 11.938,-7.388 0.719,-0.841 1.051,-1.622 1.017,-2.748 -0.077,-2.541 -0.024,-5.087 -0.024,-7.706 -0.324,-0.015 -0.597,-0.04 -0.87,-0.041 -4.188,-0.002 -8.375,0.006 -12.561,-0.012 -0.496,-0.002 -0.864,0.124 -1.198,0.528 -1.511,1.831 -3.639,2.652 -5.664,3.552 -1.957,0.873 -4.037,1.448 -6.085,2.082 -0.487,0.15 -0.663,0.312 -0.655,0.84 0.026,1.85 -0.006,3.701 0.025,5.549 0.005,0.348 0.156,0.712 0.308,1.032 0.423,0.883 0.899,1.738 1.32,2.621 0.376,0.789 0.58,1.603 1.279,2.28 1.158,1.121 0.879,3.91 -0.262,5.057 -0.236,0.238 -0.374,0.658 -0.422,1.013 -0.162,1.19 -0.182,2.405 -0.404,3.581 -0.577,3.066 -2.388,5.09 -5.098,6.237 -0.662,0.28 -0.83,0.669 -0.834,1.359 -0.013,2.577 0.252,5.091 1.486,7.377 1.456,2.701 3.727,4.041 6.652,4.118 1.039,0.026 2.104,-0.021 3.12,-0.23 3.345,-0.691 5.363,-2.92 5.767,-6.475 0.182,-1.609 0.057,-3.256 0.11,-4.885 C 2.881,16.58 3.01,16.212 3.208,16.025 4.737,14.584 4.474,12.126 2.677,11.064 2.403,10.903 2.175,10.58 2.03,10.276 1.508,9.181 1.097,8.019 0.507,6.966 0.152,6.332 -0.024,5.742 -0.01,5.021 0.023,3.362 0,1.703 0,0"
           id="path220"
           style="fill:#333;fill-opacity:1;fill-rule:evenodd;stroke:none" />
      </g>
      <g
         transform="translate(919.4512,363.3369)"
         id="g222">
        <path
           d="m 0,0 c 0,2.006 0.008,3.986 -0.011,5.967 -0.002,0.188 -0.164,0.376 -0.252,0.563 -0.582,1.245 -1.15,2.497 -1.755,3.73 -0.149,0.303 -0.366,0.636 -0.636,0.795 -1.804,1.049 -2.105,3.546 -0.534,4.927 0.327,0.289 0.34,0.55 0.349,0.951 0.036,1.866 -0.06,3.767 0.25,5.588 0.535,3.131 2.456,5.033 5.44,5.674 2.16,0.466 4.323,0.522 6.386,-0.429 2.748,-1.267 4.116,-3.693 4.657,-6.644 0.272,-1.484 0.234,-3.031 0.352,-4.549 0.035,-0.444 -0.142,-0.642 -0.523,-0.827 C 12.939,15.364 12.155,14.957 11.441,14.451 9.315,12.943 8.444,10.677 8.107,8.117 8.048,7.666 7.984,7.212 7.974,6.759 7.954,5.83 7.893,5.046 7.146,4.263 5.977,3.036 6.435,0.293 7.709,-0.81 8.041,-1.096 8.181,-1.625 8.497,-2.202 l -7.29,0 0,-11.784 -11.228,0 0,-4.698 -6.829,0 0,2.104 c 0,2.199 -0.006,4.397 0.01,6.597 0.001,0.272 0.049,0.615 0.207,0.806 2.839,3.44 6.154,6.195 10.357,7.551 1.822,0.588 3.704,0.977 5.557,1.454 C -0.496,-0.115 -0.274,-0.065 0,0"
           id="path224"
           style="fill:#333;fill-opacity:1;fill-rule:evenodd;stroke:none" />
      </g>
      <g
         transform="translate(922.8545,358.7764)"
         id="g226">
        <path
           d="m 0,0 6.721,0 0,-11.756 11.251,0 0,-7.12 -11.169,0 0,-11.759 -6.803,0 0,11.703 -11.19,0 0,7.147 11.19,0 L 0,0 z"
           id="path228"
           style="fill:#333;fill-opacity:1;fill-rule:evenodd;stroke:none" />
      </g>
      <path
         d="m 920.587,330.473 -4.456,0 0,7.027 4.456,0 0,-7.027 z"
         id="path230"
         style="fill:#333;fill-opacity:1;fill-rule:evenodd;stroke:none" />
    </g>
  </g>
</svg>
