<?xml version="1.0" encoding="UTF-8" standalone="no"?>
<!-- Created with Inkscape (http://www.inkscape.org/) -->

<svg
   xmlns:dc="http://purl.org/dc/elements/1.1/"
   xmlns:cc="http://creativecommons.org/ns#"
   xmlns:rdf="http://www.w3.org/1999/02/22-rdf-syntax-ns#"
   xmlns:svg="http://www.w3.org/2000/svg"
   xmlns="http://www.w3.org/2000/svg"
   version="1.1"
   width="200"
   height="200"
   id="svg3640">
  <defs
     id="defs3642" />
  <metadata
     id="metadata3645">
    <rdf:RDF>
      <cc:Work
         rdf:about="">
        <dc:format>image/svg+xml</dc:format>
        <dc:type
           rdf:resource="http://purl.org/dc/dcmitype/StillImage" />
        <dc:title></dc:title>
      </cc:Work>
    </rdf:RDF>
  </metadata>
  <g
     transform="translate(0,-852.36218)"
     id="layer1">
    <g
       transform="matrix(2.4582147,0,0,-2.4582147,-2533.7032,1837.3193)"
       id="g4255">
      <g
         transform="translate(1035.3887,396.6885)"
         id="g126">
        <path
           d="m 0,0 c 3.062,0.771 6.1,1.654 9.188,2.294 7.323,1.518 14.711,2.145 22.185,1.354 10.114,-1.071 19.066,-4.622 26.183,-12.145 0.066,-0.07 0.157,-0.118 0.296,-0.219 0.211,0.186 0.439,0.364 0.642,0.566 2.444,2.417 4.883,4.838 7.325,7.255 0.782,0.771 1.847,0.839 2.469,0.172 0.609,-0.653 0.538,-1.651 -0.225,-2.386 -2.713,-2.613 -5.44,-5.211 -8.123,-7.777 13.297,-16.546 15.485,-34.159 7.124,-53.113 -0.096,-0.006 -0.194,-0.012 -0.292,-0.018 0.041,0.538 0.093,1.079 0.123,1.618 0.284,5.423 -0.145,10.744 -2.491,15.744 -2.262,4.823 -6.009,7.81 -11.257,8.855 -0.602,0.12 -0.947,0.306 -1.114,1.001 -2.701,11.239 -9.633,18.295 -20.906,21.022 -0.512,0.123 -0.959,0.15 -1.093,0.884 -1.15,6.334 -5.062,10.255 -10.994,12.322 -3.808,1.326 -7.759,1.562 -11.752,1.36 -0.051,-0.003 -0.097,-0.068 -0.192,-0.14 9.541,-5.981 15.449,-14.062 14.902,-25.886 2.876,-0.65 5.891,-0.794 8.521,-2.57 -0.607,-0.751 -1.102,-1.364 -1.621,-2.007 -3.053,1.608 -6.372,1.952 -9.439,2.294 0,2.345 0.195,4.616 -0.039,6.842 -0.544,5.129 -2.954,9.429 -6.415,13.171 C 9.679,-5.911 5.672,-3.23 1.348,-0.994 0.904,-0.765 0.459,-0.542 0.015,-0.317 0.009,-0.212 0.004,-0.106 0,0"
           id="path128"
           style="fill:#333;fill-opacity:1;fill-rule:evenodd;stroke:none" />
      </g>
      <g
         transform="translate(1082.2793,333.3633)"
         id="g130">
        <path
           d="m 0,0 c -1.499,0.391 -1.485,-0.481 -1.494,-1.491 -0.035,-3.803 -0.131,-7.605 -0.205,-11.407 -0.008,-0.36 -0.031,-0.72 -0.049,-1.133 l -9.287,0 c -0.15,4.668 -0.299,9.348 -0.45,14.099 -0.499,-0.031 -0.888,-0.056 -1.423,-0.089 -0.119,1.605 -0.249,3.212 -0.358,4.822 -0.154,2.263 -0.304,4.527 -0.432,6.791 -0.161,2.872 1.941,5.099 4.789,5.101 1.767,0 3.536,0 5.304,-0.001 2.072,-0.003 4.54,-2.141 4.46,-4.213 C 0.696,8.355 0.304,4.244 0,0"
           id="path132"
           style="fill:#333;fill-opacity:1;fill-rule:evenodd;stroke:none" />
      </g>
      <g
         transform="translate(1087.166,331.1748)"
         id="g134">
        <path
           d="m 0,0 c -0.718,0.089 -1.305,0.161 -2.003,0.247 0,2.316 0.001,4.576 -10e-4,6.837 0,0.935 -0.028,1.868 -0.006,2.8 0.055,2.399 1.903,4.193 4.301,4.195 1.534,0.002 3.068,0.002 4.604,0 2.065,0 4.175,-1.805 4.229,-3.871 0.085,-3.231 -0.016,-6.467 -0.041,-9.701 0,-0.061 -0.056,-0.119 -0.134,-0.279 l -1.913,0 c 0.555,-4.028 1.095,-7.942 1.65,-11.981 l -12.625,0 C -1.294,-7.841 -0.656,-3.974 0,0"
           id="path136"
           style="fill:#333;fill-opacity:1;fill-rule:evenodd;stroke:none" />
      </g>
      <g
         transform="translate(1045.3574,320.0586)"
         id="g138">
        <path
           d="m 0,0 c -3.406,0.063 -6.229,1.163 -7.689,4.512 -1.537,3.529 -0.89,6.963 1.813,9.668 12.239,12.243 24.493,24.472 36.732,36.717 0.716,0.716 1.559,0.883 2.355,0.45 0.417,-0.226 0.716,-0.921 0.786,-1.442 0.046,-0.349 -0.333,-0.832 -0.639,-1.139 C 24.207,39.567 15.043,30.381 5.88,21.195 2.723,18.031 -0.435,14.867 -3.593,11.703 -5.553,9.738 -5.727,6.576 -3.973,4.748 -1.986,2.676 1.49,2.546 3.532,4.467 4.349,5.236 5.12,5.311 5.766,4.685 6.411,4.059 6.389,2.887 5.633,2.178 4.057,0.704 2.186,-0.062 0,0"
           id="path140"
           style="fill:#333;fill-opacity:1;fill-rule:evenodd;stroke:none" />
      </g>
      <g
         transform="translate(1065.4775,326.042)"
         id="g142">
        <path
           d="m 0,0 c -0.139,-2.22 -0.277,-4.437 -0.419,-6.722 l -6.812,0 0,7.012 c -0.397,0.066 -0.68,0.113 -0.985,0.164 -0.038,0.076 -0.109,0.158 -0.12,0.248 -0.265,2.483 -0.549,4.965 -0.777,7.451 -0.202,2.194 1.436,3.973 3.619,3.987 1.266,0.009 2.531,0.004 3.799,0.002 C 0.543,12.138 2.225,10.2 1.926,7.995 1.612,5.685 1.345,3.37 1.002,1.064 0.943,0.671 0.608,0.317 0.401,-0.054 0.267,-0.036 0.133,-0.018 0,0"
           id="path144"
           style="fill:#333;fill-opacity:1;fill-rule:evenodd;stroke:none" />
      </g>
      <g
         transform="translate(1075.8359,359.8169)"
         id="g146">
        <path
           d="M 0,0 C 2.144,0.019 3.906,-1.709 3.921,-3.844 3.936,-5.997 2.223,-7.741 0.076,-7.758 -2.072,-7.776 -3.829,-6.057 -3.852,-3.918 -3.872,-1.788 -2.134,-0.019 0,0"
           id="path148"
           style="fill:#333;fill-opacity:1;fill-rule:evenodd;stroke:none" />
      </g>
      <g
         transform="translate(1091.75,347.0723)"
         id="g150">
        <path
           d="M 0,0 C -1.939,-0.009 -3.512,1.547 -3.514,3.48 -3.516,5.404 -1.933,6.973 0.001,6.961 1.902,6.951 3.423,5.434 3.443,3.529 3.465,1.568 1.942,0.01 0,0"
           id="path152"
           style="fill:#333;fill-opacity:1;fill-rule:evenodd;stroke:none" />
      </g>
      <g
         transform="translate(1061.8535,339.6875)"
         id="g154">
        <path
           d="M 0,0 C -1.63,0.031 -2.956,1.42 -2.912,3.048 -2.865,4.686 -1.487,5.981 0.157,5.93 1.747,5.879 3.04,4.531 3.021,2.94 3.004,1.31 1.624,-0.033 0,0"
           id="path156"
           style="fill:#333;fill-opacity:1;fill-rule:evenodd;stroke:none" />
      </g>
    </g>
  </g>
</svg>
