<?xml version="1.0" encoding="UTF-8" standalone="no"?>
<!-- Created with Inkscape (http://www.inkscape.org/) -->

<svg
   xmlns:dc="http://purl.org/dc/elements/1.1/"
   xmlns:cc="http://creativecommons.org/ns#"
   xmlns:rdf="http://www.w3.org/1999/02/22-rdf-syntax-ns#"
   xmlns:svg="http://www.w3.org/2000/svg"
   xmlns="http://www.w3.org/2000/svg"
   version="1.1"
   width="200"
   height="200"
   id="svg3640">
  <defs
     id="defs3642" />
  <metadata
     id="metadata3645">
    <rdf:RDF>
      <cc:Work
         rdf:about="">
        <dc:format>image/svg+xml</dc:format>
        <dc:type
           rdf:resource="http://purl.org/dc/dcmitype/StillImage" />
        <dc:title></dc:title>
      </cc:Work>
    </rdf:RDF>
  </metadata>
  <g
     transform="translate(0,-852.36218)"
     id="layer1">
    <g
       transform="matrix(2.3642301,0,0,-2.3642301,-647.37017,1803.4852)"
       id="g3902">
      <path
         d="m 311.112,350.05 1.366,0 0,3.216 -1.366,0 0,-3.216 z m -7.252,3.215 -1.373,0 0,-3.211 1.373,0 0,3.211 z m 8.374,-24.61 3.45,0 0,3.376 -3.45,0 0,-3.376 z m -6.473,-10e-4 3.45,0 0,3.37 -3.45,0 0,-3.37 z m -6.478,-10e-4 3.456,0 0,3.364 -3.456,0 0,-3.364 z m 6.485,6.477 3.451,0 0,3.366 -3.451,0 0,-3.366 z m 9.937,3.362 -3.481,0 0,-3.37 3.481,0 0,3.37 z m -16.422,-3.372 3.476,0 0,3.376 -3.476,0 0,-3.376 z m 12.955,6.488 3.45,0 0,3.397 -3.45,0 0,-3.397 z m -9.505,3.383 -3.444,0 0,-3.401 3.444,0 0,3.401 z m 6.495,0.01 -3.464,0 0,-3.403 3.464,0 0,3.403 z m 1.037,8.238 c -0.049,0.019 -0.08,0.041 -0.112,0.041 -1.745,0.004 -3.49,0.004 -5.235,0.011 -0.233,10e-4 -0.228,-0.135 -0.228,-0.299 0.004,-0.843 0.003,-1.686 0.002,-2.529 l 0,-0.419 5.573,0 0,3.195 z m -2.306,-34.622 3.936,0 0,5.741 -3.936,0 0,-5.741 z m -4.887,-0.008 3.949,0 0,5.733 -3.949,0 0,-5.733 z m 4.402,35.532 0,-0.002 5.765,0 c 0.903,-0.001 1.416,0.507 1.417,1.414 10e-4,2.647 10e-4,5.297 -0.001,7.945 -10e-4,0.874 -0.473,1.361 -1.347,1.362 -3.877,0.006 -7.754,0.009 -11.632,-0.001 -0.755,-10e-4 -1.34,-0.426 -1.329,-1.324 0.033,-2.671 0.011,-5.343 0.012,-8.014 0,-0.913 0.467,-1.378 1.383,-1.379 1.91,-0.002 3.82,-10e-4 5.732,-10e-4 m -5.843,-4.118 0,3.24 c -0.089,0.019 -0.168,0.051 -0.247,0.053 -0.941,0.019 -1.914,1.079 -1.881,2.102 0.029,0.853 0.005,1.711 0.005,2.566 0,1.864 0.025,3.728 -0.011,5.591 -0.018,0.932 0.805,1.949 1.527,2.095 0.216,0.043 0.439,0.079 0.659,0.08 3.832,0.004 7.663,-0.027 11.493,0.02 1.401,0.017 2.334,-1.134 2.316,-2.352 -0.038,-2.625 -0.026,-5.251 -0.005,-7.876 0.008,-1.043 -0.686,-1.917 -1.489,-2.15 -0.188,-0.056 -0.386,-0.08 -0.588,-0.121 l 0,-3.248 c 0.41,0 0.805,0.004 1.199,-0.001 1.852,-0.019 3.136,-0.935 3.87,-2.584 0.21,-0.469 0.224,-1.054 0.226,-1.586 0.015,-5.908 0.011,-11.815 0.01,-17.724 0,-3.255 -0.003,-6.51 -0.005,-9.766 0,-0.596 -0.062,-0.657 -0.669,-0.657 -4.044,-0.002 -8.086,-0.002 -12.13,-0.002 -2.988,0 -5.976,0 -8.964,0.001 -0.582,0 -0.669,0.086 -0.67,0.674 -10e-4,2.532 -10e-4,5.063 -10e-4,7.597 0,1.756 0,3.514 0,5.272 0,4.875 -0.002,9.751 0,14.626 0,1.05 0.24,2.026 0.996,2.803 0.835,0.853 1.829,1.369 3.055,1.348 0.421,-0.006 0.842,-10e-4 1.304,-10e-4"
         id="path256"
         style="fill:#333;fill-opacity:1;fill-rule:evenodd;stroke:none" />
      <path
         d="m 322.059,338.278 3.362,0 0,3.373 -3.362,0 0,-3.373 z m 9.848,3.369 -3.38,0 0,-3.384 3.38,0 0,3.384 z m -6.494,-6.471 -3.367,0 0,-3.397 3.367,0 0,3.397 z m 6.478,-10e-4 -3.371,0 0,-3.387 3.371,0 0,3.387 z m -2.111,-6.813 -5.284,0 0,-6.453 5.284,0 0,6.453 z m -9.892,-7.267 0,23.944 c 0.18,0 0.341,0.001 0.502,0 3.094,-0.006 6.188,-0.015 9.282,-0.019 0.491,-10e-4 0.983,0 1.474,0.014 0.887,0.028 1.642,-0.28 2.32,-0.84 0.992,-0.816 1.508,-1.867 1.511,-3.138 0.011,-6.457 0.005,-12.915 0.005,-19.372 0,-0.467 -0.139,-0.612 -0.604,-0.612 -4.735,-0.002 -9.468,-10e-4 -14.202,-10e-4 -0.091,0 -0.181,0.014 -0.288,0.024"
         id="path258"
         style="fill:#333;fill-opacity:1;fill-rule:evenodd;stroke:none" />
      <path
         d="m 289.677,338.278 3.377,0 0,3.366 -3.377,0 0,-3.366 z m 3.365,-3.109 -3.362,0 0,-3.382 3.362,0 0,3.382 z m -9.856,3.095 3.39,0 0,3.393 -3.39,0 0,-3.393 z m 0.019,-6.471 3.372,0 0,3.386 -3.372,0 0,-3.386 z m 7.731,-3.439 -5.29,0 0,-6.449 5.29,0 0,6.449 z m 4.279,-7.283 c -0.16,0 -0.299,-0.001 -0.437,0 l -13.991,0 c -0.532,0 -0.663,0.129 -0.663,0.664 -0.001,5.778 -0.003,11.556 0.002,17.332 0.001,0.913 -0.059,1.842 0.095,2.732 0.258,1.499 1.18,2.545 2.616,3.071 0.385,0.141 0.828,0.159 1.245,0.16 3.644,0.013 7.289,0.008 10.933,0.008 0.057,0 0.114,-0.01 0.2,-0.017 l 0,-23.95 z"
         id="path260"
         style="fill:#333;fill-opacity:1;fill-rule:evenodd;stroke:none" />
      <g
         transform="translate(305.9058,361.0669)"
         id="g262">
        <path
           d="M 0,0 C 0,0.458 -0.001,0.888 0,1.318 0.005,1.94 0.253,2.272 0.868,2.344 1.34,2.4 1.83,2.406 2.302,2.351 2.911,2.28 3.165,1.939 3.173,1.321 3.18,0.922 3.178,0.525 3.181,0.127 3.181,0.104 3.192,0.081 3.214,0 c 0.4,0 0.815,0 1.232,0 0.685,-0.002 1.072,-0.375 1.081,-1.05 0.004,-0.351 0.008,-0.702 0,-1.053 C 5.511,-2.735 5.17,-3.077 4.54,-3.088 4.107,-3.098 3.675,-3.091 3.172,-3.091 3.172,-3.548 3.18,-3.988 3.171,-4.426 3.159,-4.99 2.891,-5.413 2.382,-5.481 1.856,-5.551 1.306,-5.545 0.779,-5.477 0.3,-5.417 0.037,-5.033 0.01,-4.522 -0.009,-4.171 0.005,-3.82 0.003,-3.467 0,-3.354 -0.009,-3.24 -0.017,-3.091 c -0.435,0 -0.842,-0.003 -1.25,0 -0.752,0.005 -1.096,0.347 -1.102,1.095 -0.002,0.328 -0.005,0.655 0,0.983 0.012,0.592 0.427,1.003 1.024,1.012 C -0.914,0.005 -0.482,0 0,0"
           id="path264"
           style="fill:#333;fill-opacity:1;fill-rule:evenodd;stroke:none" />
      </g>
      <g
         transform="translate(306.2949,321.4619)"
         id="g266">
        <path
           d="m 0,0 c 0,-0.375 0.006,-0.75 -0.002,-1.124 -0.006,-0.296 -0.194,-0.502 -0.442,-0.479 -0.278,0.026 -0.368,0.235 -0.371,0.472 -0.01,0.762 -0.01,1.523 0,2.283 0.003,0.25 0.088,0.484 0.398,0.469 C -0.119,1.608 0.005,1.414 0.002,1.123 -0.002,0.749 0.001,0.375 0.001,0 L 0,0 z"
           id="path268"
           style="fill:#333;fill-opacity:1;fill-rule:evenodd;stroke:none" />
      </g>
      <g
         transform="translate(309.5156,321.4717)"
         id="g270">
        <path
           d="m 0,0 c 0,-0.386 0,-0.771 0,-1.156 0,-0.255 -0.096,-0.436 -0.373,-0.458 -0.246,-0.02 -0.454,0.185 -0.457,0.466 -0.006,0.771 -0.005,1.543 -0.002,2.313 0.002,0.277 0.157,0.44 0.433,0.449 C -0.099,1.622 0.002,1.431 0,1.156 -0.003,0.771 0,0.385 0,0"
           id="path272"
           style="fill:#333;fill-opacity:1;fill-rule:evenodd;stroke:none" />
      </g>
      <g
         transform="translate(326.0459,325.1631)"
         id="g274">
        <path
           d="m 0,0 c 0,-0.375 0.006,-0.75 -0.001,-1.124 -0.006,-0.323 -0.183,-0.533 -0.447,-0.517 -0.306,0.02 -0.406,0.212 -0.404,0.503 0.007,0.762 0.009,1.523 -0.003,2.284 -0.005,0.29 0.095,0.445 0.396,0.45 C -0.129,1.601 -0.006,1.482 0,1.125 0.005,0.75 0,0.375 0,0"
           id="path276"
           style="fill:#333;fill-opacity:1;fill-rule:evenodd;stroke:none" />
      </g>
      <g
         transform="translate(287.2056,325.1719)"
         id="g278">
        <path
           d="m 0,0 c 0,-0.375 0.005,-0.749 0,-1.124 -0.007,-0.329 -0.178,-0.528 -0.437,-0.528 -0.264,0 -0.452,0.201 -0.455,0.515 -0.007,0.761 0,1.522 -0.004,2.283 -0.001,0.317 0.17,0.44 0.461,0.438 C -0.157,1.582 0.005,1.458 0.001,1.158 -0.004,0.772 0,0.386 0,0"
           id="path280"
           style="fill:#333;fill-opacity:1;fill-rule:evenodd;stroke:none" />
      </g>
      <g
         transform="translate(327.1753,370.3682)"
         id="g282">
        <path
           d="m 0,0 c -0.062,0.041 -0.122,0.083 -0.184,0.124 -0.328,0.103 -0.649,0.222 -0.986,0.306 -0.798,0.198 -2.107,0.228 -2.309,0.598 -0.56,1.026 0.203,1.873 1.501,2.416 0.347,0.146 0.654,0.342 1.39,0.733 -0.967,0.049 -1.429,0.066 -1.89,0.095 -3.053,0.194 -6.406,-0.287 -8.48,2.117 -0.151,0.174 -0.635,0.348 -0.876,0.296 -3.164,-0.681 -5.047,0.383 -6.004,2.495 -3.272,-0.503 -5.064,-0.044 -5.826,1.402 -1.147,2.171 -0.217,3.453 3.86,5.32 -1.539,2.669 -0.416,3.942 3.557,4.56 0.416,1.182 0.415,2.404 1.218,3.137 0.978,0.894 2.633,1.379 3.806,1.949 -3.099,1.117 -5.881,-0.696 -6.175,-4.45 -4.039,-1.157 -4.488,-1.737 -3.931,-5.08 -3.33,-1.239 -4.786,-2.891 -4.184,-4.749 0.752,-2.324 2.441,-2.971 7.372,-2.791 0.811,-2.14 2.688,-3.131 5.733,-2.824 0.396,0.04 0.873,-0.023 1.226,-0.162 2.116,-0.831 4.206,-1.698 6.027,-2.439 0.461,-1.645 0.583,-3.532 1.595,-5.098 0.521,-0.806 2.572,-1.209 4.037,-1.49 1.448,-0.277 2.035,0.557 2.174,1.56 0.021,0.148 0.347,0.364 0.569,0.392 2.286,0.301 3.45,1.451 3.963,2.96 4.76,0.166 5.537,0.561 7.032,3.484 5.012,0.035 7.436,2.592 6.99,6.36 2.566,0.475 3.685,1.791 3.735,3.702 0.035,1.346 -1.221,1.717 -2.663,1.934 0.932,1.883 0.613,3.979 -0.865,5.227 -1.289,1.088 -2.932,1.422 -5.065,1.139 5.029,-1.661 5.697,-2.788 4.45,-6.574 0.987,-0.535 2.186,-0.849 2.536,-1.441 0.872,-1.477 -0.01,-2.443 -3.208,-4.055 C 20.548,9.607 20.329,8.138 18.649,6.974 17.092,5.894 15.378,5.195 13.914,5.697 12.381,4.518 11.342,3.141 9.819,2.709 8.296,2.278 6.29,2.793 4.803,2.875 6.32,1.416 5.893,-0.067 3.137,-0.638 2.24,-0.823 1.053,-0.234 0,0"
           id="path284"
           style="fill:#333;fill-opacity:1;fill-rule:nonzero;stroke:none" />
      </g>
      <g
         transform="translate(342.9536,394.3125)"
         id="g286">
        <path
           d="M 0,0 C 0.019,4.996 -2.679,7.299 -7.923,7.853 -14.518,8.551 -19.73,6.397 -24.28,3.194 c -0.952,-0.67 -1.464,-1.902 -1.637,-2.925 -0.346,-2.059 1.493,-3.157 4.219,-2.727 2.314,0.366 4.023,1.34 5.554,2.697 1.176,1.043 2.728,1.95 4.348,2.586 1.453,0.57 3.046,0.13 4.124,-0.855 1.106,-1.009 0.855,-2.21 -0.194,-2.991 -1.171,-0.873 -2.706,-1.735 -4.267,-2.003 -3.096,-0.53 -4.977,-1.9 -5.805,-3.983 -0.927,-2.33 -0.187,-4.609 2.084,-6.353 0.703,-0.54 2.406,-0.665 3.535,-0.509 1.196,0.164 2.035,0.916 1.81,2.091 -0.437,2.284 0.932,3.76 3.731,4.798 C -2.357,-5.34 -0.141,-2.539 0,0"
           id="path288"
           style="fill:#333;fill-opacity:1;fill-rule:nonzero;stroke:none" />
      </g>
      <g
         transform="translate(329.8867,374.5298)"
         id="g290">
        <path
           d="M 0,0 C 2.029,0.005 3.987,1.384 4.074,2.866 4.145,4.087 1.808,5.427 -0.384,5.423 -2.792,5.419 -4.163,4.366 -4.144,2.537 -4.128,0.869 -2.696,-0.007 0,0"
           id="path292"
           style="fill:#333;fill-opacity:1;fill-rule:nonzero;stroke:none" />
      </g>
      <g
         transform="translate(321.8306,367.4927)"
         id="g294">
        <path
           d="m 0,0 c -1.388,-0.013 -2.444,-0.326 -2.426,-1.551 0.014,-1.053 1.513,-1.936 3.278,-1.857 1.087,0.049 2.252,0.125 2.195,1.321 C 2.997,-1.034 1.547,-0.012 0,0"
           id="path296"
           style="fill:#333;fill-opacity:1;fill-rule:nonzero;stroke:none" />
      </g>
      <g
         transform="translate(316.6401,366.0273)"
         id="g298">
        <path
           d="m 0,0 c -0.763,-0.723 -1.637,-1.312 -1.511,-1.478 0.398,-0.52 1.111,-1.126 1.82,-1.223 0.537,-0.073 1.255,0.578 1.893,0.908 C 1.592,-1.296 0.981,-0.8 0,0"
           id="path300"
           style="fill:#333;fill-opacity:1;fill-rule:nonzero;stroke:none" />
      </g>
      <g
         transform="translate(342.9536,394.3125)"
         id="g302">
        <path
           d="m 0,0 c -0.141,-2.539 -2.357,-5.34 -6.778,-6.98 -2.799,-1.038 -4.168,-2.514 -3.731,-4.798 0.225,-1.175 -0.614,-1.927 -1.81,-2.091 -1.129,-0.156 -2.832,-0.031 -3.535,0.509 -2.271,1.744 -3.011,4.023 -2.084,6.353 0.828,2.083 2.709,3.453 5.805,3.983 1.561,0.268 3.096,1.13 4.267,2.003 1.049,0.781 1.3,1.982 0.194,2.991 -1.078,0.985 -2.671,1.425 -4.124,0.855 -1.62,-0.636 -3.172,-1.543 -4.348,-2.586 -1.531,-1.357 -3.24,-2.331 -5.554,-2.697 -2.726,-0.43 -4.565,0.668 -4.219,2.727 0.173,1.023 0.685,2.255 1.637,2.925 4.55,3.203 9.762,5.357 16.357,4.659 C -2.679,7.299 0.019,4.996 0,0"
           id="path304"
           style="fill:#333;fill-opacity:1;fill-rule:evenodd;stroke:none" />
      </g>
      <g
         transform="translate(327.1753,370.3682)"
         id="g306">
        <path
           d="M 0,0 C 1.053,-0.234 2.24,-0.823 3.137,-0.638 5.893,-0.067 6.32,1.416 4.803,2.875 6.29,2.793 8.296,2.278 9.819,2.709 c 1.523,0.432 2.562,1.809 4.095,2.988 1.464,-0.502 3.178,0.197 4.735,1.277 1.68,1.164 1.899,2.633 1.476,4.179 3.198,1.612 4.08,2.578 3.208,4.055 -0.35,0.592 -1.549,0.906 -2.536,1.441 1.247,3.786 0.579,4.913 -4.45,6.574 2.133,0.283 3.776,-0.051 5.065,-1.139 1.478,-1.248 1.797,-3.344 0.865,-5.227 1.442,-0.217 2.698,-0.588 2.663,-1.934 C 24.89,13.012 23.771,11.696 21.205,11.221 21.651,7.453 19.227,4.896 14.215,4.861 12.72,1.938 11.943,1.543 7.183,1.377 6.67,-0.132 5.506,-1.282 3.22,-1.583 2.998,-1.611 2.672,-1.827 2.651,-1.975 2.512,-2.978 1.925,-3.812 0.477,-3.535 c -1.465,0.281 -3.516,0.684 -4.037,1.49 -1.012,1.566 -1.134,3.453 -1.595,5.098 -1.821,0.741 -3.911,1.608 -6.027,2.439 -0.353,0.139 -0.83,0.202 -1.226,0.162 -3.045,-0.307 -4.922,0.684 -5.733,2.824 -4.931,-0.18 -6.62,0.467 -7.372,2.791 -0.602,1.858 0.854,3.51 4.184,4.749 -0.557,3.343 -0.108,3.923 3.931,5.08 0.294,3.754 3.076,5.567 6.175,4.45 -1.173,-0.57 -2.828,-1.055 -3.806,-1.949 -0.803,-0.733 -0.802,-1.955 -1.218,-3.137 -3.973,-0.618 -5.096,-1.891 -3.557,-4.56 -4.077,-1.867 -5.007,-3.149 -3.86,-5.32 0.762,-1.446 2.554,-1.905 5.826,-1.402 0.957,-2.112 2.84,-3.176 6.004,-2.495 0.241,0.052 0.725,-0.122 0.876,-0.296 2.074,-2.404 5.427,-1.923 8.48,-2.117 0.461,-0.029 0.923,-0.046 1.89,-0.095 C -1.324,3.786 -1.631,3.59 -1.978,3.444 -3.276,2.901 -4.039,2.054 -3.479,1.028 -3.277,0.658 -1.968,0.628 -1.17,0.43 -0.833,0.346 -0.512,0.227 -0.184,0.124 -1.058,-0.147 -1.933,-0.418 -2.807,-0.689 -2.301,-1.303 -1.975,-2.142 -1.24,-2.466 -0.549,-2.771 0.574,-2.531 1.871,-2.531 1.006,-1.363 0.503,-0.682 0,0"
           id="path308"
           style="fill:#333;fill-opacity:1;fill-rule:evenodd;stroke:none" />
      </g>
      <g
         transform="translate(329.8867,374.5298)"
         id="g310">
        <path
           d="m 0,0 c -2.696,-0.007 -4.128,0.869 -4.144,2.537 -0.019,1.829 1.352,2.882 3.76,2.886 C 1.808,5.427 4.145,4.087 4.074,2.866 3.987,1.384 2.029,0.005 0,0"
           id="path312"
           style="fill:#333;fill-opacity:1;fill-rule:evenodd;stroke:none" />
      </g>
      <g
         transform="translate(324.0396,365.6621)"
         id="g314">
        <path
           d="M 0,0 C -0.737,1.087 -1.888,1.465 -3.34,1.088 -3.569,1.028 -3.734,0.047 -3.451,-0.181 -2.336,-1.08 -1.118,-1.066 0,0 m -2.208,1.829 c 1.546,-0.011 2.996,-1.032 3.046,-2.086 0.057,-1.195 -1.108,-1.272 -2.195,-1.32 -1.765,-0.08 -3.264,0.804 -3.278,1.856 -0.018,1.225 1.038,1.538 2.427,1.55"
           id="path316"
           style="fill:#333;fill-opacity:1;fill-rule:evenodd;stroke:none" />
      </g>
      <g
         transform="translate(316.6401,366.0273)"
         id="g318">
        <path
           d="M 0,0 C 0.981,-0.8 1.592,-1.296 2.202,-1.793 1.564,-2.123 0.846,-2.774 0.309,-2.701 -0.4,-2.604 -1.113,-1.998 -1.511,-1.478 -1.637,-1.312 -0.763,-0.723 0,0"
           id="path320"
           style="fill:#333;fill-opacity:1;fill-rule:evenodd;stroke:none" />
      </g>
    </g>
  </g>
</svg>
