<?xml version="1.0" encoding="UTF-8" standalone="no"?>
<!-- Created with Inkscape (http://www.inkscape.org/) -->

<svg
   xmlns:dc="http://purl.org/dc/elements/1.1/"
   xmlns:cc="http://creativecommons.org/ns#"
   xmlns:rdf="http://www.w3.org/1999/02/22-rdf-syntax-ns#"
   xmlns:svg="http://www.w3.org/2000/svg"
   xmlns="http://www.w3.org/2000/svg"
   xmlns:sodipodi="http://sodipodi.sourceforge.net/DTD/sodipodi-0.dtd"
   xmlns:inkscape="http://www.inkscape.org/namespaces/inkscape"
   width="241"
   height="180.3622"
   viewBox="0 0 241 180.3622"
   id="svg5771"
   version="1.1"
   inkscape:version="0.91 r13725"
   sodipodi:docname="logo.svg">
  <defs
     id="defs5773" />
  <sodipodi:namedview
     id="base"
     pagecolor="#ffffff"
     bordercolor="#666666"
     borderopacity="1.0"
     inkscape:pageopacity="0.0"
     inkscape:pageshadow="2"
     inkscape:zoom="1.6369739"
     inkscape:cx="117.17058"
     inkscape:cy="124.5295"
     inkscape:document-units="px"
     inkscape:current-layer="layer1"
     showgrid="false"
     units="px"
     inkscape:window-width="1301"
     inkscape:window-height="744"
     inkscape:window-x="65"
     inkscape:window-y="24"
     inkscape:window-maximized="1" />
  <metadata
     id="metadata5776">
    <rdf:RDF>
      <cc:Work
         rdf:about="">
        <dc:format>image/svg+xml</dc:format>
        <dc:type
           rdf:resource="http://purl.org/dc/dcmitype/StillImage" />
        <dc:title></dc:title>
      </cc:Work>
    </rdf:RDF>
  </metadata>
  <g
     inkscape:label="Layer 1"
     inkscape:groupmode="layer"
     id="layer1"
     transform="translate(0,-871.98801)">
    <g
       transform="matrix(2.1031805,0,0,-2.1031805,-442.41005,1751.3433)"
       id="g6658">
      <g
         transform="translate(278.39662,379.01918)"
         id="g378">
        <path
           inkscape:connector-curvature="0"
           id="path380"
           style="fill:#ffffff;fill-opacity:1;fill-rule:nonzero;stroke:none"
           d="m 0,0 c 0.774,0 1.495,-0.144 2.162,-0.431 0.668,-0.29 1.256,-0.685 1.767,-1.188 0.511,-0.502 0.91,-1.085 1.198,-1.753 0.29,-0.669 0.434,-1.388 0.434,-2.162 l 0,-5.559 -2.2,0 0,5.559 c 0,0.462 -0.086,0.892 -0.259,1.299 -0.172,0.403 -0.413,0.756 -0.717,1.06 -0.305,0.303 -0.663,0.543 -1.074,0.717 -0.413,0.173 -0.85,0.26 -1.311,0.26 -0.461,0 -0.895,-0.087 -1.297,-0.26 -0.404,-0.174 -0.757,-0.414 -1.062,-0.717 -0.305,-0.304 -0.543,-0.657 -0.717,-1.06 -0.172,-0.407 -0.259,-0.837 -0.259,-1.299 l 0,-5.559 -2.198,0 0,5.559 c 0,0.462 -0.088,0.892 -0.26,1.299 -0.174,0.403 -0.412,0.756 -0.717,1.06 -0.305,0.303 -0.664,0.543 -1.076,0.717 -0.412,0.173 -0.848,0.26 -1.309,0.26 -0.46,0 -0.892,-0.087 -1.296,-0.26 -0.405,-0.174 -0.758,-0.414 -1.063,-0.717 -0.306,-0.304 -0.543,-0.657 -0.719,-1.06 -0.172,-0.407 -0.256,-0.837 -0.256,-1.299 l 0,-5.559 -2.201,0 0,5.559 c 0,0.774 0.143,1.493 0.432,2.162 0.288,0.668 0.685,1.251 1.186,1.753 0.503,0.503 1.091,0.898 1.767,1.188 0.675,0.287 1.393,0.431 2.15,0.431 0.922,0 1.768,-0.202 2.534,-0.604 0.765,-0.405 1.404,-0.954 1.915,-1.645 0.508,0.691 1.151,1.24 1.925,1.645 C -1.746,-0.202 -0.906,0 0,0" />
      </g>
      <g
         transform="translate(287.93572,375.80728)"
         id="g382">
        <path
           inkscape:connector-curvature="0"
           id="path384"
           style="fill:#ffffff;fill-opacity:1;fill-rule:nonzero;stroke:none"
           d="m 0,0 c -0.661,-0.66 -0.989,-1.449 -0.989,-2.373 0,-0.51 0.116,-0.996 0.346,-1.458 0.198,0.198 0.497,0.497 0.903,0.902 0.402,0.402 0.83,0.831 1.285,1.286 0.453,0.454 0.889,0.885 1.309,1.296 C 3.273,0.066 3.598,0.387 3.83,0.619 3.205,0.932 2.541,1.039 1.842,0.94 1.14,0.839 0.527,0.529 0,0 M 5.51,-3.978 7.066,-5.535 6.301,-6.301 C 5.773,-6.826 5.172,-7.23 4.496,-7.51 3.822,-7.792 3.112,-7.933 2.371,-7.933 c -0.74,0 -1.448,0.141 -2.125,0.423 -0.675,0.28 -1.277,0.684 -1.803,1.209 -0.543,0.543 -0.947,1.158 -1.209,1.841 -0.265,0.683 -0.398,1.378 -0.398,2.087 0,0.71 0.133,1.402 0.398,2.076 0.262,0.676 0.666,1.283 1.209,1.83 0.543,0.543 1.157,0.949 1.842,1.223 0.682,0.271 1.377,0.406 2.086,0.406 0.709,0 1.406,-0.135 2.088,-0.406 C 5.143,2.482 5.756,2.076 6.301,1.533 L 7.066,0.766 0.914,-5.387 c 0.625,-0.313 1.289,-0.415 1.989,-0.308 0.701,0.105 1.314,0.424 1.841,0.951 l 0.766,0.766 z" />
      </g>
      <g
         transform="translate(301.32632,370.12558)"
         id="g386">
        <path
           inkscape:connector-curvature="0"
           id="path388"
           style="fill:#ffffff;fill-opacity:1;fill-rule:nonzero;stroke:none"
           d="m 0,0 c 0.463,0 0.895,0.085 1.299,0.258 0.404,0.172 0.758,0.412 1.062,0.718 0.305,0.305 0.543,0.663 0.717,1.073 0.173,0.412 0.26,0.847 0.26,1.31 l 0,3.336 -3.338,0 C -0.459,6.695 -0.896,6.608 -1.308,6.436 -1.719,6.262 -2.078,6.021 -2.383,5.719 -2.688,5.414 -2.927,5.062 -3.1,4.658 -3.271,4.252 -3.357,3.821 -3.357,3.359 -3.357,2.896 -3.271,2.461 -3.1,2.049 -2.927,1.639 -2.688,1.281 -2.383,0.976 -2.078,0.67 -1.719,0.43 -1.308,0.258 -0.896,0.085 -0.459,0 0,0 m 5.536,13.342 0,-9.983 C 5.536,2.6 5.393,1.885 5.104,1.209 4.816,0.533 4.42,-0.059 3.918,-0.571 3.416,-1.082 2.827,-1.48 2.15,-1.768 1.476,-2.057 0.758,-2.199 0,-2.199 c -0.756,0 -1.471,0.142 -2.148,0.431 -0.676,0.288 -1.268,0.686 -1.778,1.197 -0.511,0.512 -0.91,1.104 -1.201,1.78 -0.287,0.676 -0.431,1.391 -0.431,2.15 0,0.775 0.144,1.494 0.431,2.162 0.291,0.668 0.69,1.251 1.201,1.753 0.51,0.503 1.102,0.899 1.778,1.189 C -1.471,8.75 -0.756,8.894 0,8.894 l 3.338,0 0,4.448 2.198,0 z" />
      </g>
      <g
         transform="translate(324.26192,377.91658)"
         id="g390">
        <path
           inkscape:connector-curvature="0"
           id="path392"
           style="fill:#ffffff;fill-opacity:1;fill-rule:nonzero;stroke:none"
           d="m 0,0 c 1.225,-1.859 0.491,-5.09 -2.181,-9.605 l -0.822,0.487 c 3.071,5.196 2.894,7.538 2.205,8.587 -0.917,1.398 -3.154,1.133 -3.175,1.13 l -0.126,0.95 C -3.982,1.564 -1.251,1.896 0,0" />
      </g>
      <g
         transform="translate(308.23452,377.91658)"
         id="g394">
        <path
           inkscape:connector-curvature="0"
           id="path396"
           style="fill:#ffffff;fill-opacity:1;fill-rule:nonzero;stroke:none"
           d="m 0,0 c -1.223,-1.859 -0.49,-5.09 2.18,-9.605 l 0.826,0.487 c -3.074,5.196 -2.897,7.538 -2.208,8.587 0.919,1.398 3.153,1.133 3.175,1.13 L 4.1,1.549 C 3.982,1.564 1.25,1.896 0,0" />
      </g>
      <g
         transform="translate(322.54512,369.18618)"
         id="g398">
        <path
           inkscape:connector-curvature="0"
           id="path400"
           style="fill:#ffffff;fill-opacity:1;fill-rule:nonzero;stroke:none"
           d="m 0,0 c 0.113,-0.035 0.174,-0.156 0.133,-0.271 0,0 -2.553,-5.842 -6.221,-6.235 -2.35,-0.252 -6.331,5.816 -6.331,5.816 -0.069,0.098 -0.044,0.225 0.064,0.287 l 0.869,0.492 c 0.102,0.059 0.244,0.026 0.312,-0.071 0,0 3.231,-5.276 4.933,-5.094 2.267,0.242 4.985,5.242 4.985,5.242 0.051,0.109 0.188,0.17 0.301,0.135 L 0,0 Z" />
      </g>
      <g
         transform="translate(322.54512,369.18618)"
         id="g402">
        <path
           inkscape:connector-curvature="0"
           id="path404"
           style="fill:#ffffff;fill-opacity:1;fill-rule:nonzero;stroke:none"
           d="m 0,0 c 0.113,-0.035 0.174,-0.156 0.133,-0.271 0,0 -2.553,-5.842 -6.221,-6.235 -2.35,-0.252 -6.331,5.816 -6.331,5.816 -0.069,0.098 -0.044,0.225 0.064,0.287 l 0.869,0.492 c 0.102,0.059 0.244,0.026 0.312,-0.071 0,0 3.231,-5.276 4.933,-5.094 2.267,0.242 4.985,5.242 4.985,5.242 0.051,0.109 0.188,0.17 0.301,0.135 L 0,0 Z" />
      </g>
      <g
         transform="translate(315.66812,355.43908)"
         id="g406">
        <path
           inkscape:connector-curvature="0"
           id="path408"
           style="fill:#ffffff;fill-opacity:1;fill-rule:nonzero;stroke:none"
           d="m 0,0 c -6.73,-6.732 -9.28,2.8 -9.535,2.935 l 0.441,0.848 c 1.576,-0.817 2.067,-8.366 8.513,-3.022 1.027,0.851 1.304,2.547 0.73,5.15 L 1.086,6.116 C 1.746,3.115 1.229,1.229 0,0" />
      </g>
      <g
         transform="translate(307.26582,358.88638)"
         id="g410">
        <path
           inkscape:connector-curvature="0"
           id="path412"
           style="fill:#ffffff;fill-opacity:1;fill-rule:nonzero;stroke:none"
           d="M 0,0 -1.29,-0.826 -1.806,-0.019 -0.518,0.806 0,0 Z" />
      </g>
      <g
         transform="translate(304.58322,359.22228)"
         id="g414">
        <path
           inkscape:connector-curvature="0"
           id="path416"
           style="fill:#ffffff;fill-opacity:1;fill-rule:nonzero;stroke:none"
           d="m 0,0 c -1.438,0 -2.608,1.169 -2.608,2.608 0,1.44 1.17,2.61 2.608,2.61 1.437,0 2.608,-1.17 2.608,-2.61 C 2.608,1.169 1.437,0 0,0 m 0,5.95 c -1.843,0 -3.343,-1.5 -3.343,-3.342 0,-1.841 1.5,-3.338 3.343,-3.338 1.843,0 3.34,1.497 3.34,3.338 C 3.34,4.45 1.843,5.95 0,5.95" />
      </g>
      <g
         transform="translate(304.58322,359.96548)"
         id="g418">
        <path
           inkscape:connector-curvature="0"
           id="path420"
           style="fill:#ffffff;fill-opacity:1;fill-rule:nonzero;stroke:none"
           d="M 0,0 C -1.031,0 -1.866,0.836 -1.866,1.865 -1.866,2.895 -1.031,3.73 0,3.73 1.03,3.73 1.866,2.895 1.866,1.865 1.866,0.836 1.03,0 0,0 m 0,4.519 c -1.464,0 -2.654,-1.191 -2.654,-2.654 0,-1.463 1.19,-2.654 2.654,-2.654 1.461,0 2.653,1.191 2.653,2.654 0,1.463 -1.192,2.654 -2.653,2.654" />
      </g>
      <g
         transform="translate(304.58322,360.39508)"
         id="g422">
        <path
           inkscape:connector-curvature="0"
           id="path424"
           style="fill:#000000;fill-opacity:1;fill-rule:nonzero;stroke:none"
           d="m 0,0 c -0.79,0 -1.438,0.643 -1.438,1.436 0,0.793 0.648,1.437 1.438,1.437 0.792,0 1.437,-0.644 1.437,-1.437 C 1.437,0.643 0.792,0 0,0 m 0,3.813 c -1.309,0 -2.376,-1.066 -2.376,-2.377 0,-1.309 1.067,-2.375 2.376,-2.375 1.311,0 2.376,1.066 2.376,2.375 0,1.311 -1.065,2.377 -2.376,2.377" />
      </g>
      <g
         transform="translate(303.13982,361.84438)"
         id="g426">
        <path
           inkscape:connector-curvature="0"
           id="path428"
           style="fill:#ffffff;fill-opacity:1;fill-rule:nonzero;stroke:none"
           d="M 0,0 C 0,-0.798 0.646,-1.442 1.443,-1.442 2.24,-1.442 2.886,-0.798 2.886,0 2.886,0.799 2.24,1.441 1.443,1.441 0.646,1.441 0,0.799 0,0" />
      </g>
      <g
         transform="translate(315.73452,363.18028)"
         id="g430">
        <path
           inkscape:connector-curvature="0"
           id="path432"
           style="fill:#ffffff;fill-opacity:1;fill-rule:nonzero;stroke:none"
           d="m 0,0 c -0.424,0 -0.691,-0.337 -0.588,-0.752 0,0 0.397,-1.614 1.11,-1.614 0.714,0 1.109,1.614 1.109,1.614 C 1.734,-0.337 1.467,0 1.041,0 L 0,0 Z" />
      </g>
      <g
         transform="translate(318.21502,378.51138)"
         id="g434">
        <path
           inkscape:connector-curvature="0"
           id="path436"
           style="fill:#ffffff;fill-opacity:1;fill-rule:nonzero;stroke:none"
           d="m 0,0 c 0,-0.431 0.339,-0.694 0.752,-0.593 0,0 1.613,0.397 1.613,1.112 C 2.365,1.233 0.752,1.63 0.752,1.63 0.339,1.729 0,1.464 0,1.037 L 0,0 Z" />
      </g>
      <g
         transform="translate(314.29312,378.57678)"
         id="g438">
        <path
           inkscape:connector-curvature="0"
           id="path440"
           style="fill:#ffffff;fill-opacity:1;fill-rule:nonzero;stroke:none"
           d="m 0,0 c 0,-0.428 -0.338,-0.691 -0.752,-0.591 0,0 -1.615,0.396 -1.615,1.11 0,0.715 1.615,1.111 1.615,1.111 C -0.338,1.73 0,1.465 0,1.038 L 0,0 Z" />
      </g>
      <g
         transform="translate(315.66812,355.43908)"
         id="g442">
        <path
           inkscape:connector-curvature="0"
           id="path444"
           style="fill:#ffffff;fill-opacity:1;fill-rule:nonzero;stroke:none"
           d="m 0,0 c -3.699,-3.698 -6.134,-2.487 -7.621,-0.624 l 0.958,0.587 c 1.126,-1.321 2.858,-1.874 6.082,0.798 0.728,0.603 1.079,1.632 1.018,3.109 L 1.336,4.548 C 1.527,2.433 1,0.999 0,0" />
      </g>
      <g
         id="g4251"
         transform="matrix(0.44916326,0,0,-0.44916326,210.02267,411.26641)">
        <path
           id="path50"
           style="fill:#ffffff;fill-opacity:1;fill-rule:nonzero;stroke:none"
           d="m 61.462082,82.571335 c -1.336196,0.18881 -2.507573,0.785326 -3.514135,1.791775 -1.258116,1.258117 -1.887174,2.767903 -1.887174,4.529357 0,0.97613 0.220445,1.90228 0.660709,2.783009 0.377504,-0.377391 0.951029,-0.950142 1.721917,-1.722359 0.770553,-0.769998 1.587863,-1.587863 2.452485,-2.453376 0.86551,-0.863289 1.69848,-1.689708 2.50113,-2.475031 0.801761,-0.785213 1.422157,-1.399056 1.863298,-1.83942 -1.196033,-0.598739 -2.462038,-0.802649 -3.79823,-0.613955"
           inkscape:connector-curvature="0" />
        <g
           id="g4229"
           transform="matrix(3.1353359,0,0,3.1353359,1.5637469,-1.0371876)">
          <path
             inkscape:connector-curvature="0"
             d="m 29.493422,31.376001 c 0,0.471124 -0.08813,0.909766 -0.26344,1.316598 -0.175449,0.406123 -0.416219,0.764497 -0.722024,1.075828 -0.306231,0.310624 -0.662125,0.553483 -1.068213,0.729216 -0.406407,0.175733 -0.84519,0.263581 -1.316598,0.263581 l -0.677073,0 0,-1.33941 0.677073,0 c 0.280585,0 0.544202,-0.0526 0.789789,-0.157773 0.245906,-0.105135 0.461489,-0.251113 0.647176,-0.436552 0.185403,-0.185403 0.330708,-0.403325 0.436162,-0.654473 0.105135,-0.250475 0.158128,-0.516147 0.158128,-0.797015 l 0,-0.01523 c -0.280868,0.220685 -0.59429,0.390892 -0.940478,0.511294 -0.34594,0.120367 -0.709591,0.180551 -1.090777,0.180551 -0.461489,0 -0.897616,-0.08718 -1.309017,-0.262909 -0.411366,-0.175733 -0.772361,-0.418415 -1.083409,-0.729747 -0.311084,-0.3108 -0.554191,-0.671937 -0.729499,-1.083444 -0.175733,-0.411118 -0.263334,-0.84767 -0.263334,-1.309124 l 0,-3.370027 1.339163,0 0,3.370027 c 0,0.280904 0.05242,0.547248 0.157596,0.797688 0.105596,0.250475 0.250865,0.469105 0.436552,0.65465 0.18558,0.185262 0.403785,0.330567 0.65465,0.43641 0.250298,0.105313 0.516395,0.157738 0.797298,0.157738 0.280585,0 0.544202,-0.05242 0.789789,-0.157738 0.245906,-0.105843 0.461489,-0.251148 0.647176,-0.43641 0.185403,-0.185545 0.330708,-0.404175 0.436162,-0.65465 0.105135,-0.25044 0.158128,-0.516784 0.158128,-0.797688 l 0,-3.370027 1.33902,0 0,6.078638 z m -9.741824,-0.66974 c 0.426172,-0.065 0.799777,-0.258056 1.120638,-0.579058 l 0.466307,-0.466307 0.947845,0.947845 -0.466165,0.466307 c -0.321144,0.321002 -0.687133,0.566625 -1.098393,0.736796 -0.411224,0.170916 -0.842675,0.256143 -1.294033,0.256143 -0.451075,0 -0.882526,-0.08523 -1.293892,-0.256143 -0.411259,-0.170171 -0.777249,-0.415794 -1.098251,-0.736796 -0.330991,-0.331416 -0.577003,-0.705021 -0.737256,-1.120674 -0.160785,-0.416644 -0.24077,-0.840053 -0.24077,-1.271752 0,-0.431026 0.07999,-0.852381 0.24077,-1.263889 0.160253,-0.411118 0.406265,-0.782633 0.737256,-1.113341 0.330956,-0.330708 0.704561,-0.579058 1.12078,-0.744412 0.416077,-0.166062 0.839912,-0.248385 1.271363,-0.248385 0.431309,0 0.855144,0.08232 1.271469,0.248385 0.416219,0.165354 0.789824,0.413704 1.120957,0.744412 l 0.466165,0.466307 -3.746395,3.746537 c 0.381221,0.190823 0.785007,0.253061 1.211605,0.188025 z m -4.100093,1.331829 -1.338985,0 0,-3.385223 c 0,-0.280904 -0.05299,-0.544485 -0.158022,-0.790108 -0.105595,-0.245622 -0.250865,-0.461454 -0.436303,-0.646892 -0.185829,-0.185262 -0.404034,-0.331382 -0.654474,-0.436552 -0.251148,-0.105171 -0.516819,-0.157596 -0.797723,-0.157596 -0.280868,0 -0.54406,0.05242 -0.789824,0.157596 -0.24587,0.10517 -0.461312,0.25129 -0.646716,0.436552 -0.185863,0.185438 -0.331133,0.40127 -0.436728,0.646892 -0.104994,0.245623 -0.157738,0.509204 -0.157738,0.790108 l 0,3.385223 -1.339021,0 0,-9.463861 1.339021,0 0,3.400455 c 0.28062,-0.220684 0.594466,-0.391564 0.940229,-0.511967 0.346082,-0.120367 0.709556,-0.180586 1.090777,-0.180586 0.471585,0 0.910474,0.08803 1.316598,0.263617 0.406123,0.175733 0.764922,0.416503 1.075828,0.722273 0.310659,0.305806 0.554191,0.662125 0.729641,1.068248 0.175308,0.406123 0.26344,0.84473 0.26344,1.316598 l 0,3.385223 z M 37.646779,13.679755 c -0.202265,0.358125 -0.709167,0.576472 -1.409831,0.576472 l -6.077115,0 c -0.166488,0 -0.306904,0.139885 -0.306904,0.304672 l 0,6.07878 c 0,0.832154 -0.675939,1.506996 -1.505756,1.506996 l -3.495672,0 c -0.830206,0 -1.505047,-0.674842 -1.505047,-1.506996 l -0.0022,-6.07878 c 0,-0.109421 -0.05604,-0.179735 -0.08994,-0.214167 -0.03347,-0.03503 -0.105418,-0.0905 -0.214308,-0.0905 l -6.081401,0 c -0.830631,0 -1.505473,-0.675514 -1.505473,-1.505756 l 0,-3.4254993 c 0,0 0,-0.9284692 0,-0.9417528 0,-0.6356636 0.533292,-0.6356636 1.505473,-0.6356636 l 6.081401,0 c 0.163547,0 0.306479,-0.1396371 0.306479,-0.3052745 l -0.0022,-6.0794526 c 0,-0.2082866 0.04265,-0.40700896 0.119411,-0.58766567 -1.306219,-0.28161194 -2.660578,-0.43357611 -4.050785,-0.43357611 -10.5641665,0 -19.12835741,8.56412008 -19.12835741,19.12828658 0,10.564628 8.56419091,19.128373 19.12835741,19.128373 10.564167,0 19.128358,-8.563745 19.128358,-19.128373 0,-2.018537 -0.314909,-3.963183 -0.894427,-5.790118"
             style="fill:#ffffff;fill-opacity:1;fill-rule:nonzero;stroke:none"
             id="path52-3" />
        </g>
      </g>
    </g>
  </g>
</svg>
