<?xml version="1.0" encoding="UTF-8" standalone="no"?>
<!-- Created with Inkscape (http://www.inkscape.org/) -->

<svg
   xmlns:dc="http://purl.org/dc/elements/1.1/"
   xmlns:cc="http://creativecommons.org/ns#"
   xmlns:rdf="http://www.w3.org/1999/02/22-rdf-syntax-ns#"
   xmlns:svg="http://www.w3.org/2000/svg"
   xmlns="http://www.w3.org/2000/svg"
   version="1.1"
   width="200"
   height="200"
   id="svg3640">
  <defs
     id="defs3642" />
  <metadata
     id="metadata3645">
    <rdf:RDF>
      <cc:Work
         rdf:about="">
        <dc:format>image/svg+xml</dc:format>
        <dc:type
           rdf:resource="http://purl.org/dc/dcmitype/StillImage" />
        <dc:title></dc:title>
      </cc:Work>
    </rdf:RDF>
  </metadata>
  <g
     transform="translate(0,-852.36218)"
     id="layer1">
    <g
       transform="matrix(2.7189006,0,0,-2.7189006,-2082.088,1931.1671)"
       id="g4358">
      <g
         transform="translate(771.8828,323.2207)"
         id="g64">
        <path
           d="m 0,0 c -0.533,0.221 -1.085,0.405 -1.596,0.671 -2.363,1.225 -3.698,3.181 -3.702,5.843 -0.03,17.526 -0.026,35.053 -0.009,52.58 0.004,3.622 2.893,6.47 6.598,6.481 10.222,0.03 20.443,0.014 30.662,0.009 1.475,-0.001 2.29,-0.732 2.265,-1.969 C 34.196,62.471 33.35,61.747 31.947,61.746 22.021,61.737 12.095,61.741 2.169,61.741 -0.545,61.739 -1.545,60.73 -1.546,57.992 l 0,-50.7 c 0.001,-2.704 1.022,-3.714 3.755,-3.714 16.862,-10e-4 33.727,-10e-4 50.587,0 2.738,0 3.701,0.973 3.701,3.735 10e-4,9.852 0.007,19.706 -0.005,29.556 -10e-4,1.086 0.246,1.98 1.389,2.365 1.162,0.39 2.276,-0.33 2.392,-1.549 0.035,-0.368 0.013,-0.738 0.013,-1.106 0,-9.484 -0.073,-18.968 0.038,-28.45 C 60.367,4.482 59.507,1.508 54.924,0 L 0,0 z"
           id="path66"
           style="fill:#333;fill-opacity:1;fill-rule:evenodd;stroke:none" />
      </g>
      <g
         transform="translate(833.2256,380.6587)"
         id="g68">
        <path
           d="m 0,0 c -1.418,-1.401 -1.409,-1.41 -2.806,-0.013 -2.919,2.918 -5.822,5.85 -8.766,8.742 -0.517,0.508 -0.544,0.803 0.009,1.264 0.563,0.471 1.035,1.049 1.577,1.548 1.086,1.003 2.534,1.096 3.589,0.081 C -3.984,9.295 -1.633,6.903 0.73,4.525 1.244,4.006 1.432,3.329 1.458,2.612 1.497,1.445 0.743,0.733 0,0 m -4.75,-4.738 c -2.553,-2.56 -5.113,-5.11 -7.67,-7.664 -8.371,-8.371 -16.757,-16.728 -25.088,-25.138 -0.826,-0.834 -1.235,-0.753 -1.921,0.047 -0.765,0.895 -1.623,1.718 -2.499,2.505 -0.536,0.48 -0.436,0.752 0.029,1.215 6.665,6.632 13.31,13.287 19.963,19.934 4.332,4.327 8.685,8.632 12.976,13 0.713,0.725 1.071,0.662 1.684,-0.041 0.822,-0.943 1.758,-1.786 2.644,-2.675 0.152,-0.153 0.293,-0.318 0.422,-0.459 -0.06,-0.376 -0.341,-0.525 -0.54,-0.724 m -44.834,-37.464 c -0.286,-0.079 -0.501,-0.03 -0.689,0.185 -0.049,0.056 -0.103,0.106 -0.158,0.156 -2.712,2.481 -2.717,2.481 -1.781,6.003 0.379,1.419 0.78,2.829 1.233,4.471 1.513,-1.514 2.924,-2.936 4.348,-4.346 1.438,-1.425 2.887,-2.84 4.533,-4.457 -2.674,-0.717 -5.084,-1.357 -7.486,-2.012 m 1.062,15.262 c 5.613,5.552 11.182,11.147 16.766,16.729 5.374,5.373 10.758,10.737 16.115,16.128 0.57,0.574 0.92,0.743 1.53,0.041 0.87,-1 1.862,-1.892 2.799,-2.833 0.148,-0.146 0.284,-0.305 0.45,-0.484 -0.273,-0.286 -0.493,-0.532 -0.728,-0.764 -8.061,-8.06 -16.122,-16.117 -24.184,-24.176 -2.897,-2.896 -5.814,-5.769 -8.67,-8.703 -0.632,-0.651 -0.973,-0.591 -1.53,0.032 -0.783,0.881 -1.626,1.715 -2.502,2.505 -0.6,0.541 -0.705,0.874 -0.046,1.525 M 3.384,7.272 c -2.325,2.265 -4.588,4.597 -6.902,6.874 -2.659,2.621 -6.579,2.642 -9.214,0.012 -13.4,-13.369 -26.785,-26.756 -40.178,-40.13 -0.511,-0.508 -0.892,-1.071 -1.079,-1.767 -1.612,-5.893 -3.234,-11.784 -4.832,-17.681 -0.559,-2.059 0.603,-3.163 2.666,-2.59 5.711,1.585 11.417,3.185 17.137,4.731 1.038,0.28 1.865,0.758 2.622,1.515 12.749,12.769 25.505,25.527 38.28,38.272 1.409,1.407 2.826,2.779 3.453,4.741 l 0,2.657 C 4.791,5.088 4.361,6.318 3.384,7.272"
           id="path70"
           style="fill:#333;fill-opacity:1;fill-rule:evenodd;stroke:none" />
      </g>
      <g
         transform="translate(776.1953,362.5239)"
         id="g72">
        <path
           d="M 0,0 C 0.445,1.379 0.857,2.65 1.269,3.922 1.547,4.786 1.816,5.65 2.104,6.507 2.191,6.758 2.15,6.908 1.932,7.065 c -1.707,1.244 -3.409,2.498 -5.107,3.748 -0.116,0.084 -0.225,0.175 -0.317,0.356 0.627,0 1.254,-0.004 1.878,0 1.603,0.003 3.207,0.022 4.81,0.005 0.332,-0.003 0.472,0.096 0.571,0.409 0.637,2.013 1.293,4.017 1.944,6.024 0.037,0.114 0.084,0.227 0.164,0.436 0.087,-0.251 0.147,-0.415 0.201,-0.581 0.648,-1.98 1.3,-3.962 1.932,-5.948 0.084,-0.26 0.201,-0.336 0.468,-0.336 2.15,0.002 4.298,-0.015 6.448,-0.026 0.107,-10e-4 0.215,-0.012 0.399,-0.023 C 15.165,11.002 15.069,10.918 14.964,10.841 13.283,9.604 11.604,8.366 9.914,7.142 9.629,6.936 9.558,6.75 9.673,6.403 10.335,4.413 10.97,2.414 11.61,0.419 11.642,0.326 11.66,0.231 11.709,0.041 11.533,0.158 11.425,0.223 11.323,0.297 9.611,1.531 7.896,2.763 6.193,4.009 5.97,4.171 5.821,4.167 5.611,4.012 3.891,2.771 2.162,1.536 0.434,0.299 0.326,0.221 0.213,0.145 0,0"
           id="path74"
           style="fill:#333;fill-opacity:1;fill-rule:evenodd;stroke:none" />
      </g>
      <g
         transform="translate(823.3154,335.5986)"
         id="g76">
        <path
           d="m 0,0 -23.755,0 c -0.781,0 -1.418,0.471 -1.418,1.054 0,0.581 0.637,1.052 1.418,1.052 L 0,2.106 C 0.783,2.106 1.421,1.635 1.421,1.054 1.421,0.471 0.783,0 0,0"
           id="path78"
           style="fill:#333;fill-opacity:1;fill-rule:nonzero;stroke:none" />
      </g>
      <g
         transform="translate(823.0498,330.873)"
         id="g80">
        <path
           d="m 0,0 -28.194,0 c -0.926,0 -1.682,0.472 -1.682,1.054 0,0.581 0.756,1.053 1.682,1.053 L 0,2.107 C 0.931,2.107 1.687,1.635 1.687,1.054 1.687,0.472 0.931,0 0,0"
           id="path82"
           style="fill:#333;fill-opacity:1;fill-rule:nonzero;stroke:none" />
      </g>
      <g
         transform="translate(819.7148,340.1104)"
         id="g84">
        <path
           d="m 0,0 -17.636,0 c -0.579,0 -1.051,0.471 -1.051,1.054 0,0.581 0.472,1.053 1.051,1.053 L 0,2.107 C 0.582,2.107 1.053,1.635 1.053,1.054 1.053,0.471 0.582,0 0,0"
           id="path86"
           style="fill:#333;fill-opacity:1;fill-rule:nonzero;stroke:none" />
      </g>
    </g>
  </g>
</svg>
