<?xml version="1.0" encoding="UTF-8" standalone="no"?>
<!-- Created with Inkscape (http://www.inkscape.org/) -->

<svg
   xmlns:dc="http://purl.org/dc/elements/1.1/"
   xmlns:cc="http://creativecommons.org/ns#"
   xmlns:rdf="http://www.w3.org/1999/02/22-rdf-syntax-ns#"
   xmlns:svg="http://www.w3.org/2000/svg"
   xmlns="http://www.w3.org/2000/svg"
   version="1.1"
   width="200"
   height="200"
   id="svg3640">
  <defs
     id="defs3642" />
  <metadata
     id="metadata3645">
    <rdf:RDF>
      <cc:Work
         rdf:about="">
        <dc:format>image/svg+xml</dc:format>
        <dc:type
           rdf:resource="http://purl.org/dc/dcmitype/StillImage" />
        <dc:title></dc:title>
      </cc:Work>
    </rdf:RDF>
  </metadata>
  <g
     transform="translate(0,-852.36218)"
     id="layer1">
    <g
       transform="matrix(2.777776,0,0,-2.777776,-372.20033,1952.3627)"
       id="g3600">
      <g
         transform="translate(183.498,380.8418)"
         id="g88">
        <path
           d="m 0,0 c 1.461,-1.259 2.187,-2.956 2.791,-4.721 0.122,-0.361 0.18,-0.753 0.355,-1.086 0.161,-0.298 0.352,-0.755 0.828,-0.504 0.339,0.179 0.306,0.479 0.122,0.836 -0.194,0.376 -0.248,0.826 -0.364,1.244 0.33,1.159 -0.397,2.031 -0.815,2.987 -0.774,0.875 -1.072,2.163 -2.289,2.658 -1.96,1.587 -3.866,3.251 -6.345,4.045 -1.218,0.392 -2.445,0.649 -3.722,0.654 -0.35,10e-4 -0.842,0.139 -0.915,-0.421 -0.084,-0.649 0.416,-0.64 0.862,-0.688 3.463,-0.372 6.468,-1.718 8.927,-4.21 C -0.34,0.566 -0.186,0.267 0,0"
           id="path90"
           style="fill:#333;fill-opacity:1;fill-rule:evenodd;stroke:none" />
      </g>
      <g
         transform="translate(173.0415,350.8965)"
         id="g92">
        <path
           d="m 0,0 c -11.149,0 -20.19,9.041 -20.19,20.19 0,11.151 9.041,20.19 20.19,20.19 11.15,0 20.19,-9.039 20.19,-20.19 C 20.19,9.041 11.15,0 0,0 m 6.598,44.019 c -15.712,4.205 -31.003,-7.426 -31.178,-24.176 0.093,-5.865 2.165,-11.424 6.396,-16.169 0.356,-0.4 1.363,-0.739 0.56,-1.559 -0.474,-0.483 -0.726,-1.692 -1.834,-0.642 -0.38,0.36 -0.657,-0.212 -0.887,-0.484 -6.118,-7.201 -12.226,-14.411 -18.357,-21.602 -0.472,-0.555 -0.486,-0.923 0.101,-1.324 0.043,-0.029 0.083,-0.072 0.124,-0.107 1.322,-1.08 2.603,-2.94 3.979,-3.017 1.292,-0.069 2.227,2.173 3.295,3.413 5.153,5.991 10.27,12.011 15.39,18.031 0.411,0.483 1.135,0.826 0.374,1.759 -0.456,0.562 0.527,1.056 0.897,1.544 0.472,0.625 0.88,0.022 1.256,-0.213 4.176,-2.621 8.718,-3.968 13.653,-3.94 12.369,0.071 22.683,9.328 24.268,21.779 1.533,12.012 -6.266,23.558 -18.037,26.707"
           id="path94"
           style="fill:#333;fill-opacity:1;fill-rule:evenodd;stroke:none" />
      </g>
      <path
         d="m 184.289,353.629 1.242,0 0,2.924 -1.242,0 0,-2.924 z m -6.594,2.923 -1.248,0 0,-2.92 1.248,0 0,2.92 z m 7.615,-22.374 3.136,0 0,3.069 -3.136,0 0,-3.069 z m -5.886,-10e-4 3.136,0 0,3.064 -3.136,0 0,-3.064 z m -5.89,0 3.142,0 0,3.059 -3.142,0 0,-3.059 z m 5.896,5.887 3.137,0 0,3.061 -3.137,0 0,-3.061 z m 9.034,3.058 -3.166,0 0,-3.064 3.166,0 0,3.064 z m -14.93,-3.066 3.16,0 0,3.069 -3.16,0 0,-3.069 z m 11.779,5.899 3.136,0 0,3.088 -3.136,0 0,-3.088 z m -8.642,3.074 -3.131,0 0,-3.092 3.131,0 0,3.092 z m 5.905,0.009 -3.149,0 0,-3.094 3.149,0 0,3.094 z m 0.943,7.49 c -0.044,0.018 -0.073,0.038 -0.102,0.038 -1.587,0.004 -3.173,0.003 -4.759,0.01 -0.212,0 -0.207,-0.123 -0.207,-0.271 0.004,-0.767 0.002,-1.534 0.001,-2.301 l 0,-0.381 5.067,0 0,2.905 z m -2.097,-31.476 3.578,0 0,5.22 -3.578,0 0,-5.22 z m -4.442,-0.007 3.59,0 0,5.212 -3.59,0 0,-5.212 z m 9.933,31.622 c -0.172,-0.051 -0.351,-0.072 -0.535,-0.11 l 0,-2.952 c 0.373,0 0.732,0.003 1.09,-0.001 1.684,-0.017 2.851,-0.85 3.519,-2.349 0.191,-0.428 0.203,-0.959 0.205,-1.443 0.014,-5.371 0.011,-10.742 0.009,-16.113 0,-2.96 -0.002,-5.919 -0.004,-8.879 0,-0.543 -0.057,-0.597 -0.608,-0.597 -3.677,-0.002 -7.352,-0.002 -11.028,-0.002 -2.717,0 -5.434,0 -8.15,10e-4 -0.529,0 -0.608,0.078 -0.609,0.613 -0.001,2.302 -0.002,4.602 -0.002,6.905 0,1.598 10e-4,3.197 10e-4,4.794 -10e-4,4.433 -0.002,8.865 -10e-4,13.298 10e-4,0.954 0.219,1.842 0.907,2.548 0.758,0.776 1.662,1.244 2.776,1.225 0.384,-0.005 0.766,-0.001 1.186,-0.001 l 0,2.946 c -0.081,0.017 -0.152,0.047 -0.224,0.049"
         id="path96"
         style="fill:#333;fill-opacity:1;fill-rule:evenodd;stroke:none" />
      <path
         d="m 194.241,342.927 3.058,0 0,3.067 -3.058,0 0,-3.067 z m 8.954,3.062 -3.073,0 0,-3.076 3.073,0 0,3.076 z m -5.904,-5.883 -3.062,0 0,-3.089 3.062,0 0,3.089 z m 5.889,-0.002 -3.064,0 0,-3.078 3.064,0 0,3.078 z m -1.919,-6.192 -4.804,0 0,-5.867 4.804,0 0,5.867 z m -8.993,-6.608 0,21.769 c 0.164,0 0.309,0.001 0.456,0 2.813,-0.006 5.626,-0.012 8.439,-0.017 0.446,-10e-4 0.894,0 1.34,0.013 0.806,0.025 1.492,-0.255 2.109,-0.763 0.903,-0.744 1.371,-1.698 1.374,-2.854 0.01,-5.871 0.005,-11.742 0.005,-17.613 0,-0.424 -0.127,-0.555 -0.549,-0.555 -4.305,-0.002 -8.609,-0.002 -12.913,-10e-4 -0.082,0 -0.164,0.013 -0.261,0.021"
         id="path98"
         style="fill:#333;fill-opacity:1;fill-rule:evenodd;stroke:none" />
      <path
         d="m 164.801,342.928 3.071,0 0,3.06 -3.071,0 0,-3.06 z m 3.059,-2.827 -3.057,0 0,-3.076 3.057,0 0,3.076 z m -8.96,2.813 3.082,0 0,3.084 -3.082,0 0,-3.084 z m 0.017,-5.884 3.066,0 0,3.079 -3.066,0 0,-3.079 z m 7.028,-3.126 -4.809,0 0,-5.863 4.809,0 0,5.863 z m 3.891,-6.622 -0.398,0 c -4.239,0 -8.479,0 -12.719,0.001 -0.484,0 -0.603,0.117 -0.603,0.604 -0.001,5.253 -0.003,10.506 0.002,15.758 0.001,0.829 -0.053,1.673 0.087,2.482 0.234,1.363 1.072,2.313 2.378,2.793 0.349,0.128 0.752,0.144 1.131,0.145 3.313,0.012 6.627,0.008 9.94,0.007 0.052,0 0.104,-0.008 0.182,-0.014 l 0,-21.776 z"
         id="path100"
         style="fill:#333;fill-opacity:1;fill-rule:evenodd;stroke:none" />
      <g
         transform="translate(179.9097,327.6377)"
         id="g102">
        <path
           d="m 0,0 c 0,-0.341 0.006,-0.681 -0.002,-1.021 -0.005,-0.27 -0.177,-0.457 -0.402,-0.435 -0.253,0.022 -0.335,0.213 -0.337,0.429 -0.009,0.692 -0.009,1.383 0,2.075 0.003,0.227 0.08,0.439 0.362,0.427 C -0.108,1.463 0.005,1.286 0.001,1.021 -0.002,0.682 0,0.342 0,0 z"
           id="path104"
           style="fill:#333;fill-opacity:1;fill-rule:evenodd;stroke:none" />
      </g>
      <g
         transform="translate(182.8374,327.6475)"
         id="g106">
        <path
           d="m 0,0 c 0,-0.352 0,-0.701 0,-1.052 0,-0.232 -0.087,-0.396 -0.339,-0.417 -0.224,-0.016 -0.412,0.169 -0.415,0.425 -0.006,0.7 -0.005,1.402 -0.002,2.103 0.002,0.253 0.143,0.4 0.393,0.408 C -0.09,1.474 0.002,1.301 0,1.051 -0.002,0.7 0,0.35 0,0"
           id="path108"
           style="fill:#333;fill-opacity:1;fill-rule:evenodd;stroke:none" />
      </g>
      <g
         transform="translate(197.8662,331.0029)"
         id="g110">
        <path
           d="m 0,0 c 0,-0.341 0.005,-0.682 -0.001,-1.021 -0.005,-0.295 -0.166,-0.485 -0.406,-0.47 -0.279,0.017 -0.37,0.192 -0.367,0.457 0.006,0.692 0.008,1.385 -0.004,2.077 -0.004,0.262 0.087,0.403 0.36,0.408 C -0.117,1.455 -0.005,1.348 0,1.022 0.004,0.682 0,0.341 0,0"
           id="path112"
           style="fill:#333;fill-opacity:1;fill-rule:evenodd;stroke:none" />
      </g>
      <g
         transform="translate(162.5547,331.0107)"
         id="g114">
        <path
           d="m 0,0 c 0,-0.341 0.004,-0.681 -0.001,-1.021 -0.005,-0.299 -0.161,-0.481 -0.397,-0.481 -0.24,0 -0.411,0.183 -0.414,0.469 -0.006,0.691 0.001,1.384 -0.003,2.075 -0.001,0.289 0.155,0.4 0.419,0.398 C -0.143,1.438 0.004,1.325 0,1.054 -0.004,0.703 0,0.352 0,0"
           id="path116"
           style="fill:#333;fill-opacity:1;fill-rule:evenodd;stroke:none" />
      </g>
      <g
         transform="translate(188.5674,356.0293)"
         id="g118">
        <path
           d="m 0,0 -2.133,0 m -11.329,-0.001 -2.144,0 m 12.149,-0.041 c -0.076,0.03 -0.125,0.065 -0.175,0.065 -2.726,0.006 -5.451,0.006 -8.177,0.018 -0.363,0 -0.356,-0.213 -0.356,-0.468 m 4.348,1.794 0,-0.003 9.006,0 c 1.41,-0.001 2.212,0.792 2.212,2.208 0.004,4.137 0.002,8.276 0,12.412 -10e-4,1.366 -0.738,2.126 -2.104,2.128 -6.057,0.009 -12.113,0.013 -18.17,-10e-4 -1.18,-0.003 -2.094,-0.666 -2.076,-2.069 0.051,-4.172 0.017,-8.346 0.018,-12.518 0,-1.425 0.729,-2.155 2.16,-2.156 2.985,-0.002 5.968,-0.001 8.954,-0.001 m -9.126,-1.372 c -0.14,0.031 -0.263,0.081 -0.386,0.084 -1.47,0.029 -2.99,1.685 -2.938,3.282 0.045,1.335 0.007,2.674 0.007,4.011 0,2.91 0.039,5.822 -0.018,8.733 -0.026,1.455 1.258,3.044 2.387,3.272 0.338,0.068 0.685,0.123 1.029,0.124 5.986,0.007 11.969,-0.042 17.952,0.032 C 3.278,19.56 4.737,17.762 4.708,15.86 4.649,11.759 4.668,7.656 4.7,3.555 4.713,1.927 3.629,0.562 2.375,0.196 2.08,0.11 1.772,0.071 1.456,0.007"
           id="path120"
           style="fill:#333;fill-opacity:1;fill-rule:evenodd;stroke:none" />
      </g>
      <g
         transform="translate(178.3018,368.2158)"
         id="g122">
        <path
           d="m 0,0 c 0,0.716 -0.003,1.388 0,2.059 0.008,0.972 0.395,1.49 1.356,1.603 0.737,0.087 1.502,0.096 2.24,0.01 C 4.547,3.562 4.944,3.029 4.957,2.064 4.968,1.441 4.964,0.82 4.968,0.198 4.968,0.163 4.986,0.127 5.02,0 5.645,0 6.293,0 6.945,0 8.015,-0.002 8.618,-0.585 8.632,-1.64 8.64,-2.188 8.646,-2.737 8.632,-3.286 8.607,-4.272 8.075,-4.806 7.09,-4.825 6.415,-4.839 5.739,-4.829 4.954,-4.829 c 0,-0.713 0.014,-1.4 -0.002,-2.084 -0.017,-0.881 -0.436,-1.542 -1.232,-1.649 -0.821,-0.11 -1.679,-0.1 -2.503,0.006 -0.749,0.096 -1.159,0.694 -1.202,1.493 -0.029,0.547 -0.007,1.097 -0.011,1.646 -0.004,0.178 -0.018,0.356 -0.03,0.588 -0.68,0 -1.317,-0.004 -1.953,0 -1.175,0.008 -1.712,0.543 -1.721,1.711 -0.004,0.512 -0.009,1.024 0,1.536 0.018,0.925 0.665,1.567 1.598,1.58 C -1.427,0.008 -0.753,0 0,0"
           id="path124"
           style="fill:#333;fill-opacity:1;fill-rule:evenodd;stroke:none" />
      </g>
    </g>
  </g>
</svg>
