<?xml version="1.0" encoding="UTF-8" standalone="no"?>
<!-- Created with Inkscape (http://www.inkscape.org/) -->

<svg
   xmlns:dc="http://purl.org/dc/elements/1.1/"
   xmlns:cc="http://creativecommons.org/ns#"
   xmlns:rdf="http://www.w3.org/1999/02/22-rdf-syntax-ns#"
   xmlns:svg="http://www.w3.org/2000/svg"
   xmlns="http://www.w3.org/2000/svg"
   version="1.1"
   width="200"
   height="200"
   id="svg3640">
  <defs
     id="defs3642" />
  <metadata
     id="metadata3645">
    <rdf:RDF>
      <cc:Work
         rdf:about="">
        <dc:format>image/svg+xml</dc:format>
        <dc:type
           rdf:resource="http://purl.org/dc/dcmitype/StillImage" />
        <dc:title></dc:title>
      </cc:Work>
    </rdf:RDF>
  </metadata>
  <g
     transform="translate(0,-852.36218)"
     id="layer1">
    <g
       transform="matrix(2.6839643,0,0,-2.6839643,-1063.2802,1918.5894)"
       id="g4520">
      <g
         transform="translate(432.3149,378.7007)"
         id="g158">
        <path
           d="m 0,0 c -0.785,-0.111 -2.191,-0.221 -3.556,-0.519 -5.765,-1.264 -9.098,-5.516 -8.949,-11.383 0.047,-1.863 0.626,-3.614 1.326,-5.321 1.18,-2.871 2.78,-5.524 4.304,-8.213 1.41,-2.487 2.898,-4.936 3.699,-7.714 0.093,-0.322 0.307,-0.251 0.513,-0.216 2.287,0.396 4.574,0.79 6.856,1.205 0.156,0.029 0.374,0.193 0.41,0.331 0.581,2.317 1.711,4.381 2.897,6.423 1.418,2.443 2.892,4.858 4.229,7.345 1.426,2.651 2.244,5.455 1.727,8.535 -0.517,3.08 -1.934,5.563 -4.578,7.282 C 6.368,-0.611 3.55,-0.088 0,0 m -6.303,-37.57 c 0,0.46 -0.011,0.871 0.003,1.281 0.062,1.747 -0.518,3.332 -1.319,4.83 -1.372,2.565 -2.817,5.089 -4.222,7.637 -1.503,2.727 -2.972,5.482 -3.674,8.54 -1.21,5.272 -0.314,10.082 3.505,14.102 2.074,2.184 4.705,3.461 7.623,4.098 4.541,0.992 9.024,0.831 13.293,-1.156 4.607,-2.144 7.234,-5.811 8.032,-10.834 0.564,-3.555 -0.177,-6.875 -1.796,-9.991 -1.464,-2.817 -3.131,-5.527 -4.702,-8.288 -0.967,-1.7 -1.989,-3.384 -2.384,-5.332 -0.136,-0.666 -0.137,-1.36 -0.17,-2.043 -0.014,-0.263 -0.083,-0.38 -0.358,-0.427 -3.473,-0.597 -6.943,-1.204 -10.413,-1.811 -1.1,-0.192 -2.198,-0.39 -3.418,-0.606"
           id="path160"
           style="fill:#333;fill-opacity:1;fill-rule:evenodd;stroke:none" />
      </g>
      <g
         transform="translate(440.7104,334.0625)"
         id="g162">
        <path
           d="m 0,0 c -0.005,-0.915 -0.587,-1.585 -1.553,-1.735 -1.617,-0.252 -3.237,-0.486 -4.856,-0.723 -2.197,-0.323 -4.396,-0.639 -6.592,-0.967 -0.942,-0.139 -1.803,0.449 -2.009,1.399 -0.195,0.895 0.367,1.846 1.294,2.02 1.427,0.267 2.868,0.46 4.305,0.672 2.478,0.365 4.956,0.73 7.436,1.077 C -0.875,1.896 0.005,1.1 0,0"
           id="path164"
           style="fill:#333;fill-opacity:1;fill-rule:evenodd;stroke:none" />
      </g>
      <g
         transform="translate(427.5669,336.0107)"
         id="g166">
        <path
           d="m 0,0 c -1.068,0.005 -1.829,0.695 -1.895,1.593 -0.069,0.937 0.571,1.748 1.498,1.886 3.784,0.565 7.566,1.129 11.351,1.688 1.113,0.165 2.01,-0.405 2.171,-1.36 C 13.291,2.825 12.691,1.888 11.759,1.727 10.838,1.568 9.91,1.449 8.984,1.312 6.142,0.894 3.3,0.476 0.458,0.058 0.26,0.028 0.061,0.008 0,0"
           id="path168"
           style="fill:#333;fill-opacity:1;fill-rule:evenodd;stroke:none" />
      </g>
      <g
         transform="translate(440.709,328.7236)"
         id="g170">
        <path
           d="m 0,0 c -0.005,-0.886 -0.583,-1.58 -1.513,-1.721 -2.575,-0.392 -5.154,-0.758 -7.732,-1.137 -1.239,-0.182 -2.48,-0.354 -3.717,-0.552 -0.953,-0.153 -1.858,0.45 -2.056,1.405 -0.182,0.886 0.395,1.843 1.313,2.012 1.46,0.269 2.934,0.473 4.404,0.689 2.429,0.358 4.86,0.707 7.291,1.051 C -0.88,1.907 0.007,1.127 0,0"
           id="path172"
           style="fill:#333;fill-opacity:1;fill-rule:evenodd;stroke:none" />
      </g>
      <g
         transform="translate(454.1978,370.1636)"
         id="g174">
        <path
           d="m 0,0 c 0.001,0.687 0.434,1.208 1.179,1.34 3.285,0.585 6.572,1.157 9.86,1.732 0.838,0.147 1.675,0.305 2.517,0.426 0.89,0.127 1.557,-0.372 1.656,-1.197 C 15.299,1.58 14.736,0.949 13.906,0.803 9.831,0.089 5.755,-0.628 1.681,-1.351 0.745,-1.517 -0.002,-0.928 0,0"
           id="path176"
           style="fill:#333;fill-opacity:1;fill-rule:evenodd;stroke:none" />
      </g>
      <g
         transform="translate(406.1401,341.874)"
         id="g178">
        <path
           d="m 0,0 c -0.59,0.062 -1.092,0.384 -1.307,0.886 -0.241,0.563 -0.123,1.167 0.37,1.59 1.167,1.001 2.351,1.983 3.529,2.972 1.881,1.581 3.759,3.165 5.647,4.74 0.926,0.772 2.1,0.433 2.353,-0.675 C 10.727,8.924 10.461,8.48 10.021,8.111 7.382,5.898 4.746,3.683 2.108,1.468 1.685,1.113 1.274,0.741 0.83,0.416 0.584,0.236 0.279,0.136 0,0"
           id="path180"
           style="fill:#333;fill-opacity:1;fill-rule:evenodd;stroke:none" />
      </g>
      <g
         transform="translate(422.7852,385.0947)"
         id="g182">
        <path
           d="m 0,0 c -0.057,-0.635 -0.451,-1.164 -1.034,-1.335 -0.613,-0.179 -1.231,0.066 -1.585,0.668 -0.679,1.152 -1.34,2.315 -2.01,3.474 -1.305,2.258 -2.614,4.514 -3.912,6.777 -0.527,0.922 -0.125,1.87 0.876,2.117 0.57,0.141 1.136,-0.137 1.494,-0.753 1.033,-1.779 2.06,-3.561 3.089,-5.343 0.92,-1.593 1.844,-3.184 2.753,-4.783 C -0.185,0.568 -0.109,0.275 0,0"
           id="path184"
           style="fill:#333;fill-opacity:1;fill-rule:evenodd;stroke:none" />
      </g>
      <g
         transform="translate(410.3423,368.1323)"
         id="g186">
        <path
           d="m 0,0 c -1.168,0.201 -2.467,0.422 -3.766,0.65 -2.612,0.46 -5.223,0.925 -7.835,1.386 -1.206,0.213 -1.72,1.388 -0.977,2.261 0.323,0.381 0.743,0.552 1.249,0.463 C -7.435,4.074 -3.541,3.39 0.352,2.701 1.172,2.556 1.635,1.963 1.553,1.187 1.475,0.454 0.901,-0.028 0,0"
           id="path188"
           style="fill:#333;fill-opacity:1;fill-rule:evenodd;stroke:none" />
      </g>
      <g
         transform="translate(450.5791,397.2583)"
         id="g190">
        <path
           d="m 0,0 c 1.079,0.008 1.721,-1.09 1.178,-2.063 -0.766,-1.371 -1.562,-2.725 -2.347,-4.085 -1.154,-1.997 -2.312,-3.99 -3.459,-5.99 -0.319,-0.557 -0.76,-0.899 -1.417,-0.836 -1.021,0.098 -1.537,1.175 -1.009,2.114 0.679,1.208 1.384,2.402 2.077,3.604 1.213,2.097 2.43,4.192 3.633,6.295 C -1.038,-0.425 -0.682,0.005 0,0"
           id="path192"
           style="fill:#333;fill-opacity:1;fill-rule:evenodd;stroke:none" />
      </g>
      <g
         transform="translate(459.2441,343.1436)"
         id="g194">
        <path
           d="m 0,0 c -0.292,0.14 -0.626,0.229 -0.868,0.429 -2.917,2.429 -5.823,4.872 -8.726,7.317 -0.651,0.55 -0.737,1.348 -0.242,1.959 0.499,0.617 1.341,0.684 2.005,0.128 C -4.918,7.397 -2.012,4.956 0.892,2.511 1.4,2.082 1.548,1.533 1.346,0.986 1.126,0.394 0.675,0.082 0,0"
           id="path196"
           style="fill:#333;fill-opacity:1;fill-rule:evenodd;stroke:none" />
      </g>
      <g
         transform="translate(437.165,325.1621)"
         id="g198">
        <path
           d="M 0,0 C -1.779,-2.968 -4.692,-3.036 -7.542,-1.129 -5.006,-0.75 -2.546,-0.381 0,0"
           id="path200"
           style="fill:#333;fill-opacity:1;fill-rule:evenodd;stroke:none" />
      </g>
      <g
         transform="translate(426.6401,362.3887)"
         id="g202">
        <path
           d="m 0,0 c 0.455,-1.27 0.911,-2.539 1.365,-3.81 1.234,-3.46 2.464,-6.921 3.702,-10.38 0.124,-0.345 0.212,-0.668 -0.024,-0.999 -0.217,-0.306 -0.51,-0.416 -0.873,-0.355 -0.418,0.071 -0.623,0.355 -0.715,0.742 l -0.9,3.75 C 1.69,-7.45 0.825,-3.849 -0.039,-0.246 -0.057,-0.171 -0.057,-0.093 -0.066,-0.017 -0.044,-0.011 -0.022,-0.005 0,0"
           id="path204"
           style="fill:#333;fill-opacity:1;fill-rule:evenodd;stroke:none" />
      </g>
      <g
         transform="translate(439.2974,363.0425)"
         id="g206">
        <path
           d="m 0,0 c -0.371,-1.521 -0.743,-3.041 -1.113,-4.562 -0.806,-3.306 -1.612,-6.611 -2.418,-9.917 -0.106,-0.436 -0.299,-0.782 -0.808,-0.818 -0.439,-0.032 -0.784,0.149 -0.889,0.566 -0.063,0.251 -0.003,0.564 0.088,0.817 1.004,2.797 2.027,5.587 3.042,8.38 0.673,1.85 1.342,3.701 2.013,5.552 L 0,0 z"
           id="path208"
           style="fill:#333;fill-opacity:1;fill-rule:evenodd;stroke:none" />
      </g>
      <g
         transform="translate(440.6689,365.2568)"
         id="g210">
        <path
           d="m 0,0 c -1.466,0.561 -2.829,0.171 -3.362,-1.873 -0.469,1.021 -0.989,1.912 -2.235,1.802 -1.248,-0.111 -1.527,-1.145 -1.939,-2.19 -0.169,0.384 -0.299,0.672 -0.422,0.963 -0.314,0.744 -0.846,1.2 -1.677,1.216 -0.849,0.016 -1.413,-0.427 -1.761,-1.177 -0.111,-0.241 -0.222,-0.483 -0.381,-0.828 -0.279,0.881 -0.473,1.72 -1.342,2.094 -0.83,0.357 -1.595,0.224 -2.335,-0.353 0.733,1.205 2.085,1.266 3.709,0.212 1.23,1.307 2.821,1.378 4.188,0.196 1.568,1.33 3.192,0.9 4.172,-0.225 C -2.301,0.758 -1.166,0.916 0,0"
           id="path212"
           style="fill:#333;fill-opacity:1;fill-rule:evenodd;stroke:none" />
      </g>
    </g>
  </g>
</svg>
