<?xml version="1.0" encoding="UTF-8" standalone="no"?>
<!-- Created with Inkscape (http://www.inkscape.org/) -->

<svg
   xmlns:dc="http://purl.org/dc/elements/1.1/"
   xmlns:cc="http://creativecommons.org/ns#"
   xmlns:rdf="http://www.w3.org/1999/02/22-rdf-syntax-ns#"
   xmlns:svg="http://www.w3.org/2000/svg"
   xmlns="http://www.w3.org/2000/svg"
   version="1.1"
   width="200"
   height="200"
   id="svg3640">
  <defs
     id="defs3642" />
  <metadata
     id="metadata3645">
    <rdf:RDF>
      <cc:Work
         rdf:about="">
        <dc:format>image/svg+xml</dc:format>
        <dc:type
           rdf:resource="http://purl.org/dc/dcmitype/StillImage" />
        <dc:title></dc:title>
      </cc:Work>
    </rdf:RDF>
  </metadata>
  <g
     transform="translate(0,-852.36218)"
     id="layer1">
    <g
       transform="matrix(2.6828074,0,0,-2.6828074,-1742.477,1918.1728)"
       id="g4073">
      <g
         transform="translate(685.4487,322.7256)"
         id="g36">
        <path
           d="m 0,0 c -8.97,0 -17.94,0 -26.912,0.001 -4.283,0.002 -7.745,3.386 -7.751,7.669 -0.019,12.931 -0.019,25.866 0.002,38.798 0.007,4.038 3.458,7.471 7.485,7.528 1.58,0.02 3.16,-0.015 4.739,0.013 0.472,0.008 0.659,-0.084 0.641,-0.608 -0.041,-1.339 -0.033,-2.677 -0.008,-4.015 0.008,-0.428 -0.121,-0.556 -0.543,-0.538 -0.775,0.031 -1.551,0.008 -2.328,0.007 -0.135,0 -0.267,0.004 -0.402,-10e-4 -1.085,-0.035 -1.857,-0.557 -1.873,-1.265 -0.016,-0.716 0.734,-1.282 1.836,-1.292 2.866,-0.022 5.732,-0.011 8.597,-0.012 14.513,0 29.026,0.005 43.54,-0.003 4.322,-0.003 7.726,-3.44 7.728,-7.768 0,-1.421 -0.035,-2.84 0.015,-4.258 0.024,-0.647 -0.116,-0.853 -0.812,-0.846 -4.096,0.038 -8.194,0.015 -12.291,0.02 -5.339,0.008 -9.473,-3.435 -10.435,-8.7 -0.977,-5.348 2.999,-10.893 8.385,-11.719 0.852,-0.13 1.705,-0.15 2.561,-0.15 3.936,10e-4 7.874,-0.015 11.808,0.02 0.643,0.006 0.812,-0.172 0.78,-0.794 -0.101,-1.948 0.182,-3.912 -0.17,-5.849 -0.651,-3.584 -3.87,-6.235 -7.52,-6.235 L 0,0.003 0,0 z"
           id="path38"
           style="fill:#333;fill-opacity:1;fill-rule:evenodd;stroke:none" />
      </g>
      <g
         transform="translate(710.21,371.582)"
         id="g40">
        <path
           d="m 0,0 c 0.464,1.11 0.874,2.121 1.316,3.117 0.163,0.371 0.201,0.576 -0.247,0.8 -3.634,1.809 -5.312,6.133 -3.933,9.797 0.133,0.351 0.071,0.495 -0.288,0.644 -2.149,0.884 -4.292,1.783 -6.417,2.716 -0.482,0.213 -0.577,-0.019 -0.761,-0.355 -1.959,-3.606 -5.752,-5.131 -9.684,-3.87 -0.52,0.168 -0.622,-0.054 -0.781,-0.43 -1.631,-3.891 -3.289,-7.771 -4.903,-11.671 -0.24,-0.583 -0.527,-0.789 -1.165,-0.766 C -28.47,0.038 -30.076,0 -31.68,0 c -0.155,0.246 0.034,0.418 0.107,0.593 3.02,7.159 6.046,14.318 9.075,21.473 1.388,3.276 4.265,4.436 7.539,3.054 C -7.8,22.098 -0.641,19.076 6.519,16.057 9.577,14.768 10.789,11.664 9.416,8.633 8.217,5.98 7.005,3.333 5.843,0.663 5.609,0.123 5.321,-0.025 4.769,-0.013 3.219,0.022 1.665,0 0,0"
           id="path42"
           style="fill:#333;fill-opacity:1;fill-rule:evenodd;stroke:none" />
      </g>
      <g
         transform="translate(713.6377,338.1572)"
         id="g44">
        <path
           d="m 0,0 c -2.008,0 -4.015,-0.007 -6.023,0.003 -4.303,0.019 -7.7,3.409 -7.709,7.683 -0.01,4.322 3.387,7.728 7.735,7.739 4.121,0.01 8.242,0.005 12.363,0 1.696,-0.001 2.763,-1.06 2.766,-2.744 0.004,-3.29 0.003,-6.582 0,-9.874 C 9.13,1.057 8.084,0.006 6.343,0.002 4.227,-0.004 2.114,0 0,0"
           id="path46"
           style="fill:#333;fill-opacity:1;fill-rule:evenodd;stroke:none" />
      </g>
      <g
         transform="translate(672.373,371.582)"
         id="g48">
        <path
           d="m 0,0 c 0.467,1.77 0.916,3.467 1.363,5.165 1.194,4.521 2.391,9.04 3.574,13.56 0.642,2.452 2.154,3.941 4.688,4.329 0.158,0.026 0.318,0.045 0.479,0.045 0.673,-0.003 1.522,0.041 1.921,-0.372 0.462,-0.479 -0.244,-1.118 -0.469,-1.659 C 8.725,14.318 5.858,7.584 3.036,0.832 2.769,0.19 2.478,-0.105 1.768,-0.014 1.217,0.056 0.65,0 0,0"
           id="path50"
           style="fill:#333;fill-opacity:1;fill-rule:evenodd;stroke:none" />
      </g>
      <g
         transform="translate(697.4932,371.582)"
         id="g52">
        <path
           d="m 0,0 c -2.674,0 -5.346,-0.001 -8.02,0 -1.047,0 -1.047,0 -0.867,1 0.564,3.129 2.766,5.271 6.191,6.013 C 1.751,7.975 6.89,5.287 8.638,1.086 8.709,0.916 8.771,0.738 8.845,0.567 9.032,0.13 8.924,-0.015 8.421,-0.013 5.614,0.011 2.808,0 0,0"
           id="path54"
           style="fill:#333;fill-opacity:1;fill-rule:evenodd;stroke:none" />
      </g>
      <g
         transform="translate(674.27,391.9551)"
         id="g56">
        <path
           d="m 0,0 c -1.734,-6.564 -3.477,-13.137 -5.194,-19.714 -0.145,-0.554 -0.388,-0.687 -0.931,-0.674 -1.637,0.044 -1.655,0.019 -1.446,1.606 0.631,4.794 1.256,9.592 1.922,14.382 C -5.262,-1.621 -2.581,0.397 0,0"
           id="path58"
           style="fill:#333;fill-opacity:1;fill-rule:evenodd;stroke:none" />
      </g>
      <g
         transform="translate(706.9834,345.9404)"
         id="g60">
        <path
           d="M 0,0 C 0.016,1.621 1.299,2.874 2.934,2.864 4.616,2.852 5.879,1.579 5.867,-0.091 5.854,-1.743 4.541,-3.024 2.881,-3.005 1.218,-2.984 -0.016,-1.695 0,0"
           id="path62"
           style="fill:#333;fill-opacity:1;fill-rule:evenodd;stroke:none" />
      </g>
    </g>
  </g>
</svg>
