<?xml version="1.0" encoding="UTF-8" standalone="no"?>
<!-- Created with Inkscape (http://www.inkscape.org/) -->

<svg
   xmlns:dc="http://purl.org/dc/elements/1.1/"
   xmlns:cc="http://creativecommons.org/ns#"
   xmlns:rdf="http://www.w3.org/1999/02/22-rdf-syntax-ns#"
   xmlns:svg="http://www.w3.org/2000/svg"
   xmlns="http://www.w3.org/2000/svg"
   xmlns:sodipodi="http://sodipodi.sourceforge.net/DTD/sodipodi-0.dtd"
   xmlns:inkscape="http://www.inkscape.org/namespaces/inkscape"
   id="svg2"
   version="1.1"
   inkscape:version="0.91 r13725"
   xml:space="preserve"
   width="254"
   height="51"
   viewBox="0 0 254 51"
   sodipodi:docname="hospitalsIQ.svg"><metadata
     id="metadata8"><rdf:RDF><cc:Work
         rdf:about=""><dc:format>image/svg+xml</dc:format><dc:type
           rdf:resource="http://purl.org/dc/dcmitype/StillImage" /><dc:title></dc:title></cc:Work></rdf:RDF></metadata><defs
     id="defs6"><clipPath
       clipPathUnits="userSpaceOnUse"
       id="clipPath16"><path
         d="M 0,576 1440,576 1440,0 0,0 0,576 Z"
         id="path18"
         inkscape:connector-curvature="0" /></clipPath></defs><sodipodi:namedview
     pagecolor="#ffffff"
     bordercolor="#666666"
     borderopacity="1"
     objecttolerance="10"
     gridtolerance="10"
     guidetolerance="10"
     inkscape:pageopacity="0"
     inkscape:pageshadow="2"
     inkscape:window-width="1301"
     inkscape:window-height="744"
     id="namedview4"
     showgrid="false"
     inkscape:zoom="0.51534363"
     inkscape:cx="433.34305"
     inkscape:cy="360"
     inkscape:window-x="65"
     inkscape:window-y="24"
     inkscape:window-maximized="1"
     inkscape:current-layer="g10" /><g
     id="g10"
     inkscape:groupmode="layer"
     inkscape:label="for nav bar"
     transform="matrix(1.25,0,0,-1.25,0,51)"><g
       id="g12"
       transform="matrix(0.79759343,0,0,0.79759343,-589.03752,-290.81079)"><g
         id="g14"
         clip-path="url(#clipPath16)"><g
           id="g20"
           transform="translate(606.9365,140.4902)" /><g
           id="g24"
           transform="translate(625.6299,132.3936)" /><g
           id="g28"
           transform="translate(548.0576,145.8965)" /><g
           id="g32"
           transform="translate(548.0576,172.748)" /><g
           id="g36"
           transform="translate(580.4268,167.249)" /><g
           id="g40"
           transform="translate(644.585,174.6387)" /><g
           id="g44"
           transform="translate(665.8779,171.9404)" /><g
           id="g48"
           transform="translate(701.2256,155.582)" /><g
           id="g52"
           transform="translate(729.374,151.5078)" /><g
           id="g56"
           transform="translate(750.3193,155.6855)" /><g
           id="g60"
           transform="translate(766.0791,163.8125)" /><g
           id="g64"
           transform="translate(772.1904,166.5078)" /><g
           id="g68"
           transform="translate(800.626,155.459)" /><g
           id="g72"
           transform="translate(811.8408,147.5801)" /><g
           id="g76"
           transform="translate(841.3467,151.5078)" /><g
           id="g80"
           transform="translate(864.9385,169.6152)" /><g
           id="g84"
           transform="translate(867.7158,163.8125)" /><g
           id="g88"
           transform="translate(893.374,151.7559)" /><g
           id="g92"
           transform="translate(621.2007,345.7134)" /><g
           id="g96"
           transform="translate(665.48,326.5317)" /><g
           id="g100"
           transform="translate(481.7324,358.5195)" /><g
           id="g104"
           transform="translate(481.7324,422.1206)" /><g
           id="g108"
           transform="translate(558.4077,409.0957)" /><g
           id="g112"
           transform="translate(710.3794,426.6021)" /><g
           id="g116"
           transform="translate(748.2988,404.5708)"><path
             d="m 0,0 0,-8.333 c 0.713,0.822 1.408,1.474 2.088,1.954 0.68,0.481 1.43,0.84 2.254,1.08 0.822,0.24 1.707,0.361 2.654,0.361 1.426,0 2.692,-0.303 3.795,-0.906 1.104,-0.603 1.973,-1.482 2.604,-2.633 0.396,-0.672 0.664,-1.424 0.802,-2.253 0.137,-0.83 0.205,-1.787 0.205,-2.87 l 0,-10.761 c 0,-1.125 -0.257,-1.976 -0.771,-2.553 -0.514,-0.576 -1.197,-0.863 -2.047,-0.863 -1.852,0 -2.777,1.138 -2.777,3.416 l 0,9.485 c 0,1.796 -0.27,3.178 -0.803,4.146 -0.535,0.965 -1.551,1.449 -3.045,1.449 -1.002,0 -1.904,-0.284 -2.707,-0.853 C 1.449,-10.703 0.85,-11.481 0.453,-12.469 0.15,-13.306 0,-14.794 0,-16.934 l 0,-7.427 c 0,-1.112 -0.25,-1.96 -0.752,-2.543 -0.5,-0.581 -1.197,-0.873 -2.088,-0.873 -1.851,0 -2.777,1.138 -2.777,3.416 l 0,24.361 c 0,1.138 0.242,1.992 0.73,2.562 0.487,0.568 1.168,0.853 2.047,0.853 0.891,0 1.588,-0.289 2.088,-0.865 C -0.25,1.975 0,1.124 0,0"
             style="fill:#0ab9c1;fill-opacity:1;fill-rule:nonzero;stroke:none"
             id="path118"
             inkscape:connector-curvature="0" /></g><g
           id="g120"
           transform="translate(783.6465,388.2134)"><path
             d="M 0,0 C 0,2.29 -0.504,4.073 -1.512,5.35 -2.52,6.625 -3.875,7.262 -5.574,7.262 -6.672,7.262 -7.641,6.978 -8.477,6.409 -9.313,5.84 -9.957,4.999 -10.41,3.889 -10.863,2.777 -11.09,1.481 -11.09,0 c 0,-1.469 0.223,-2.751 0.67,-3.848 0.445,-1.098 1.082,-1.938 1.912,-2.52 0.83,-0.584 1.809,-0.875 2.934,-0.875 1.699,0 3.054,0.641 4.062,1.924 C -0.504,-4.037 0,-2.264 0,0 m 5.639,0 c 0,-1.674 -0.262,-3.218 -0.782,-4.63 -0.521,-1.413 -1.275,-2.627 -2.263,-3.641 -0.989,-1.016 -2.168,-1.795 -3.539,-2.336 -1.371,-0.542 -2.916,-0.813 -4.629,-0.813 -1.701,0 -3.231,0.274 -4.59,0.823 -1.357,0.548 -2.533,1.334 -3.527,2.355 -0.997,1.022 -1.75,2.23 -2.264,3.622 -0.516,1.392 -0.772,2.933 -0.772,4.62 0,1.7 0.26,3.257 0.782,4.67 0.521,1.413 1.269,2.62 2.242,3.621 0.974,1.001 2.154,1.773 3.539,2.315 1.387,0.542 2.916,0.813 4.59,0.813 1.699,0 3.242,-0.274 4.629,-0.823 C 0.439,10.047 1.627,9.266 2.613,8.25 3.602,7.235 4.354,6.028 4.867,4.629 5.381,3.229 5.639,1.687 5.639,0"
             style="fill:#0ab9c1;fill-opacity:1;fill-rule:nonzero;stroke:none"
             id="path122"
             inkscape:connector-curvature="0" /></g><g
           id="g124"
           transform="translate(811.7949,384.1387)"><path
             d="m 0,0 c 0,-1.55 -0.377,-2.877 -1.133,-3.981 -0.754,-1.104 -1.869,-1.941 -3.344,-2.511 -1.474,-0.569 -3.267,-0.853 -5.378,-0.853 -2.018,0 -3.747,0.308 -5.186,0.926 -1.441,0.617 -2.504,1.388 -3.189,2.314 -0.686,0.927 -1.03,1.855 -1.03,2.788 0,0.617 0.221,1.146 0.658,1.585 0.44,0.439 0.997,0.658 1.668,0.658 0.59,0 1.041,-0.144 1.358,-0.432 0.314,-0.288 0.617,-0.694 0.906,-1.215 0.574,-1 1.264,-1.748 2.066,-2.241 0.803,-0.495 1.897,-0.742 3.284,-0.742 1.123,0 2.047,0.25 2.765,0.751 0.721,0.501 1.082,1.074 1.082,1.719 0,0.987 -0.375,1.707 -1.123,2.16 -0.746,0.452 -1.978,0.885 -3.693,1.296 -1.934,0.481 -3.508,0.985 -4.721,1.512 -1.215,0.528 -2.185,1.225 -2.912,2.089 -0.726,0.864 -1.09,1.927 -1.09,3.189 0,1.125 0.336,2.187 1.008,3.19 0.672,1.001 1.662,1.8 2.973,2.397 1.31,0.596 2.89,0.895 4.742,0.895 1.455,0 2.762,-0.152 3.92,-0.453 1.16,-0.302 2.127,-0.707 2.902,-1.214 0.774,-0.508 1.363,-1.07 1.77,-1.687 0.404,-0.618 0.605,-1.222 0.605,-1.81 0,-0.646 -0.215,-1.173 -0.646,-1.585 -0.434,-0.412 -1.047,-0.618 -1.842,-0.618 -0.576,0 -1.066,0.165 -1.473,0.495 -0.404,0.329 -0.867,0.823 -1.388,1.481 -0.424,0.547 -0.926,0.987 -1.502,1.316 -0.577,0.329 -1.358,0.495 -2.346,0.495 -1.014,0 -1.857,-0.216 -2.529,-0.649 -0.674,-0.432 -1.01,-0.971 -1.01,-1.615 0,-0.59 0.248,-1.074 0.742,-1.451 0.494,-0.377 1.158,-0.689 1.996,-0.936 0.836,-0.247 1.988,-0.549 3.455,-0.905 1.742,-0.425 3.166,-0.934 4.27,-1.523 C -2.26,4.246 -1.424,3.549 -0.854,2.748 -0.285,1.944 0,1.029 0,0"
             style="fill:#0ab9c1;fill-opacity:1;fill-rule:nonzero;stroke:none"
             id="path126"
             inkscape:connector-curvature="0" /></g><g
           id="g128"
           transform="translate(832.7402,388.3149)"><path
             d="m 0,0 c 0,1.482 -0.227,2.755 -0.68,3.817 -0.451,1.064 -1.08,1.88 -1.881,2.449 -0.802,0.569 -1.691,0.854 -2.666,0.854 -1.548,0 -2.855,-0.611 -3.919,-1.831 -1.063,-1.222 -1.594,-3.018 -1.594,-5.391 0,-2.236 0.527,-3.974 1.584,-5.216 1.056,-1.242 2.367,-1.861 3.929,-1.861 0.934,0 1.797,0.269 2.594,0.812 0.795,0.541 1.432,1.355 1.912,2.439 C -0.24,-2.845 0,-1.535 0,0 m -11.008,8.169 0,-0.679 c 1.057,1.302 2.154,2.26 3.293,2.871 1.137,0.609 2.428,0.915 3.867,0.915 1.729,0 3.321,-0.446 4.774,-1.338 C 2.379,9.046 3.529,7.744 4.373,6.029 5.217,4.314 5.639,2.285 5.639,-0.061 5.639,-1.789 5.395,-3.377 4.908,-4.824 4.42,-6.272 3.752,-7.486 2.9,-8.466 c -0.849,-0.981 -1.853,-1.736 -3.013,-2.263 -1.158,-0.528 -2.405,-0.792 -3.735,-0.792 -1.605,0 -2.953,0.322 -4.043,0.967 -1.089,0.643 -2.129,1.591 -3.117,2.839 l 0,-8.436 c 0,-2.469 -0.898,-3.703 -2.695,-3.703 -1.057,0 -1.756,0.318 -2.1,0.957 -0.342,0.636 -0.513,1.566 -0.513,2.787 l 0,24.238 c 0,1.07 0.232,1.869 0.699,2.397 0.467,0.528 1.103,0.792 1.914,0.792 0.795,0 1.443,-0.271 1.943,-0.812 0.502,-0.542 0.752,-1.32 0.752,-2.336"
             style="fill:#0ab9c1;fill-opacity:1;fill-rule:nonzero;stroke:none"
             id="path130"
             inkscape:connector-curvature="0" /></g><g
           id="g132"
           transform="translate(848.502,396.4429)"><path
             d="m 0,0 0,-16.233 c 0,-1.125 -0.268,-1.976 -0.803,-2.553 -0.535,-0.576 -1.215,-0.863 -2.037,-0.863 -0.822,0 -1.492,0.295 -2.006,0.885 -0.515,0.589 -0.771,1.433 -0.771,2.531 l 0,16.069 c 0,1.11 0.256,1.947 0.771,2.51 0.514,0.562 1.184,0.843 2.006,0.843 0.822,0 1.502,-0.281 2.037,-0.843 C -0.268,1.783 0,1.001 0,0 m -2.777,5.802 c -0.784,0 -1.452,0.24 -2.008,0.72 -0.555,0.48 -0.832,1.16 -0.832,2.037 0,0.796 0.283,1.451 0.853,1.966 0.569,0.514 1.231,0.771 1.987,0.771 0.726,0 1.371,-0.233 1.933,-0.699 C -0.281,10.129 0,9.451 0,8.559 0,7.695 -0.275,7.019 -0.824,6.533 -1.373,6.045 -2.023,5.802 -2.777,5.802"
             style="fill:#0ab9c1;fill-opacity:1;fill-rule:nonzero;stroke:none"
             id="path134"
             inkscape:connector-curvature="0" /></g><g
           id="g136"
           transform="translate(854.6133,399.1382)"><path
             d="m 0,0 0.617,0 0,3.375 c 0,0.905 0.024,1.615 0.07,2.129 C 0.736,6.018 0.869,6.46 1.09,6.832 1.309,7.215 1.625,7.527 2.035,7.767 2.447,8.008 2.906,8.128 3.414,8.128 4.127,8.128 4.773,7.86 5.35,7.325 5.732,6.969 5.977,6.533 6.08,6.018 6.182,5.504 6.234,4.773 6.234,3.827 L 6.234,0 8.291,0 c 0.795,0 1.402,-0.189 1.82,-0.566 0.418,-0.377 0.629,-0.861 0.629,-1.45 0,-0.755 -0.299,-1.283 -0.896,-1.585 C 9.248,-3.902 8.395,-4.053 7.283,-4.053 l -1.049,0 0,-10.329 c 0,-0.878 0.03,-1.554 0.092,-2.026 0.063,-0.474 0.227,-0.858 0.494,-1.153 0.268,-0.296 0.703,-0.441 1.307,-0.441 0.328,0 0.773,0.056 1.336,0.174 0.562,0.117 1.002,0.174 1.318,0.174 0.451,0 0.86,-0.18 1.225,-0.545 0.363,-0.363 0.545,-0.813 0.545,-1.348 0,-0.905 -0.494,-1.598 -1.483,-2.078 -0.986,-0.48 -2.406,-0.72 -4.257,-0.72 -1.758,0 -3.088,0.295 -3.993,0.886 -0.906,0.588 -1.5,1.405 -1.779,2.447 -0.281,1.043 -0.422,2.435 -0.422,4.178 l 0,10.781 -0.742,0 c -0.809,0 -1.426,0.191 -1.852,0.576 -0.425,0.384 -0.636,0.871 -0.636,1.461 0,0.589 0.222,1.073 0.668,1.45 C -1.5,-0.189 -0.852,0 0,0"
             style="fill:#0ab9c1;fill-opacity:1;fill-rule:nonzero;stroke:none"
             id="path138"
             inkscape:connector-curvature="0" /></g><g
           id="g140"
           transform="translate(883.0488,388.0894)"><path
             d="m 0,0 c -0.824,-0.302 -2.021,-0.621 -3.592,-0.957 -1.57,-0.336 -2.658,-0.583 -3.26,-0.741 -0.605,-0.158 -1.181,-0.466 -1.728,-0.926 -0.549,-0.459 -0.824,-1.1 -0.824,-1.923 0,-0.85 0.322,-1.574 0.966,-2.171 0.645,-0.596 1.489,-0.896 2.532,-0.896 1.111,0 2.136,0.245 3.076,0.731 0.939,0.487 1.629,1.114 2.068,1.883 C -0.254,-4.15 0,-2.75 0,-0.803 L 0,0 Z m 0.369,-8.127 c -1.357,-1.057 -2.672,-1.849 -3.939,-2.377 -1.27,-0.527 -2.694,-0.792 -4.27,-0.792 -1.441,0 -2.705,0.285 -3.797,0.854 -1.09,0.569 -1.929,1.34 -2.519,2.315 -0.59,0.973 -0.885,2.029 -0.885,3.167 0,1.537 0.486,2.848 1.461,3.931 0.973,1.083 2.31,1.811 4.012,2.181 0.355,0.082 1.24,0.268 2.654,0.556 1.412,0.288 2.623,0.552 3.631,0.792 1.008,0.239 2.101,0.531 3.283,0.874 -0.07,1.481 -0.367,2.569 -0.896,3.261 -0.528,0.693 -1.622,1.039 -3.282,1.039 -1.426,0 -2.5,-0.199 -3.22,-0.596 C -8.117,6.68 -8.734,6.083 -9.25,5.288 -9.764,4.491 -10.127,3.968 -10.34,3.714 -10.553,3.46 -11.008,3.333 -11.709,3.333 c -0.631,0 -1.176,0.202 -1.635,0.607 -0.461,0.405 -0.689,0.922 -0.689,1.554 0,0.987 0.349,1.947 1.049,2.88 0.699,0.932 1.791,1.701 3.271,2.304 1.483,0.604 3.326,0.906 5.535,0.906 2.469,0 4.41,-0.292 5.823,-0.875 C 3.059,10.127 4.057,9.204 4.639,7.942 5.223,6.68 5.514,5.006 5.514,2.922 5.514,1.605 5.51,0.487 5.504,-0.432 5.496,-1.352 5.486,-2.373 5.473,-3.499 c 0,-1.055 0.173,-2.156 0.523,-3.301 0.352,-1.146 0.525,-1.883 0.525,-2.212 0,-0.576 -0.271,-1.1 -0.812,-1.574 -0.543,-0.474 -1.156,-0.71 -1.842,-0.71 -0.576,0 -1.144,0.271 -1.707,0.813 C 1.598,-9.942 1,-9.157 0.369,-8.127"
             style="fill:#0ab9c1;fill-opacity:1;fill-rule:nonzero;stroke:none"
             id="path142"
             inkscape:connector-curvature="0" /></g><g
           id="g144"
           transform="translate(894.2617,380.2095)"><path
             d="m 0,0 0,24.361 c 0,1.124 0.25,1.975 0.752,2.551 0.5,0.576 1.176,0.864 2.025,0.864 0.852,0 1.537,-0.284 2.059,-0.853 0.519,-0.569 0.781,-1.424 0.781,-2.562 L 5.617,0 c 0,-1.14 -0.263,-1.993 -0.793,-2.563 -0.527,-0.568 -1.209,-0.853 -2.047,-0.853 -0.822,0 -1.492,0.295 -2.006,0.885 C 0.258,-1.942 0,-1.098 0,0"
             style="fill:#0ab9c1;fill-opacity:1;fill-rule:nonzero;stroke:none"
             id="path146"
             inkscape:connector-curvature="0" /></g><g
           id="g148"
           transform="translate(923.7676,384.1387)"><path
             d="m 0,0 c 0,-1.55 -0.377,-2.877 -1.133,-3.981 -0.754,-1.104 -1.869,-1.941 -3.344,-2.511 -1.474,-0.569 -3.267,-0.853 -5.378,-0.853 -2.018,0 -3.747,0.308 -5.186,0.926 -1.441,0.617 -2.504,1.388 -3.189,2.314 -0.686,0.927 -1.03,1.855 -1.03,2.788 0,0.617 0.221,1.146 0.658,1.585 0.44,0.439 0.997,0.658 1.668,0.658 0.59,0 1.041,-0.144 1.358,-0.432 0.314,-0.288 0.617,-0.694 0.906,-1.215 0.574,-1 1.264,-1.748 2.066,-2.241 0.803,-0.495 1.897,-0.742 3.284,-0.742 1.123,0 2.047,0.25 2.765,0.751 0.721,0.501 1.082,1.074 1.082,1.719 0,0.987 -0.375,1.707 -1.123,2.16 -0.746,0.452 -1.978,0.885 -3.693,1.296 -1.934,0.481 -3.508,0.985 -4.721,1.512 -1.215,0.528 -2.185,1.225 -2.912,2.089 -0.726,0.864 -1.09,1.927 -1.09,3.189 0,1.125 0.336,2.187 1.008,3.19 0.672,1.001 1.662,1.8 2.973,2.397 1.31,0.596 2.89,0.895 4.742,0.895 1.455,0 2.762,-0.152 3.92,-0.453 1.16,-0.302 2.127,-0.707 2.902,-1.214 0.774,-0.508 1.363,-1.07 1.77,-1.687 0.404,-0.618 0.605,-1.222 0.605,-1.81 0,-0.646 -0.215,-1.173 -0.646,-1.585 -0.434,-0.412 -1.047,-0.618 -1.842,-0.618 -0.576,0 -1.066,0.165 -1.473,0.495 -0.404,0.329 -0.867,0.823 -1.388,1.481 -0.424,0.547 -0.926,0.987 -1.502,1.316 -0.577,0.329 -1.358,0.495 -2.346,0.495 -1.014,0 -1.857,-0.216 -2.529,-0.649 -0.674,-0.432 -1.01,-0.971 -1.01,-1.615 0,-0.59 0.248,-1.074 0.742,-1.451 0.494,-0.377 1.158,-0.689 1.996,-0.936 0.836,-0.247 1.988,-0.549 3.455,-0.905 1.742,-0.425 3.166,-0.934 4.27,-1.523 C -2.26,4.246 -1.424,3.549 -0.854,2.748 -0.285,1.944 0,1.029 0,0"
             style="fill:#0ab9c1;fill-opacity:1;fill-rule:nonzero;stroke:none"
             id="path150"
             inkscape:connector-curvature="0" /></g><g
           id="g152"
           transform="translate(947.3594,402.2451)"><path
             d="M 0,0 C -0.781,0 -1.451,0.239 -2.006,0.72 -2.563,1.2 -2.84,1.879 -2.84,2.757 c 0,0.796 0.285,1.451 0.854,1.966 0.57,0.514 1.232,0.771 1.986,0.771 0.727,0 1.371,-0.234 1.934,-0.7 C 2.496,4.327 2.777,3.649 2.777,2.757 2.777,1.893 2.504,1.217 1.955,0.73 1.406,0.243 0.754,0 0,0"
             style="fill:#fac731;fill-opacity:1;fill-rule:nonzero;stroke:none"
             id="path154"
             inkscape:connector-curvature="0" /></g><g
           id="g156"
           transform="translate(950.1367,396.4429)"><path
             d="m 0,0 0,-16.233 c 0,-1.125 -0.268,-1.976 -0.803,-2.553 -0.535,-0.576 -1.213,-0.863 -2.037,-0.863 -0.822,0 -1.49,0.295 -2.006,0.885 -0.513,0.589 -0.771,1.433 -0.771,2.531 l 0,16.069 c 0,1.11 0.258,1.947 0.771,2.51 0.516,0.562 1.184,0.843 2.006,0.843 0.824,0 1.502,-0.281 2.037,-0.843 C -0.268,1.783 0,1.001 0,0"
             style="fill:#0ab9c1;fill-opacity:1;fill-rule:nonzero;stroke:none"
             id="path158"
             inkscape:connector-curvature="0" /></g><g
           id="g160"
           transform="translate(975.7949,384.3867)"><path
             d="M 0,0 C 0.85,0.973 1.479,2.125 1.883,3.456 2.287,4.787 2.49,6.33 2.49,8.085 c 0,2.208 -0.357,4.123 -1.07,5.741 -0.713,1.617 -1.732,2.841 -3.057,3.673 -1.322,0.829 -2.842,1.244 -4.556,1.244 -1.221,0 -2.35,-0.23 -3.385,-0.689 -1.035,-0.46 -1.928,-1.129 -2.674,-2.006 -0.748,-0.878 -1.338,-2 -1.769,-3.364 -0.434,-1.366 -0.649,-2.898 -0.649,-4.599 0,-3.47 0.809,-6.142 2.428,-8.015 1.617,-1.871 3.662,-2.808 6.131,-2.808 1.015,0 2.058,0.214 3.127,0.639 -0.645,0.479 -1.45,0.96 -2.416,1.439 -0.967,0.481 -1.629,0.85 -1.987,1.111 -0.357,0.261 -0.535,0.632 -0.535,1.111 0,0.412 0.172,0.775 0.516,1.092 0.342,0.314 0.719,0.472 1.131,0.472 C -5.027,3.126 -2.936,2.084 0,0 m 4.795,-3.334 c 0.891,-0.604 1.865,-1.19 2.922,-1.759 1.054,-0.57 1.754,-1.023 2.097,-1.359 0.344,-0.337 0.514,-0.813 0.514,-1.429 0,-0.439 -0.201,-0.879 -0.605,-1.317 -0.407,-0.44 -0.897,-0.659 -1.473,-0.659 -0.465,0 -1.031,0.151 -1.697,0.453 -0.664,0.302 -1.448,0.74 -2.346,1.316 -0.898,0.576 -1.883,1.248 -2.951,2.016 -1.99,-1.013 -4.432,-1.521 -7.326,-1.521 -2.346,0 -4.448,0.374 -6.307,1.12 -1.857,0.748 -3.418,1.825 -4.68,3.231 -1.263,1.407 -2.213,3.076 -2.849,5.011 -0.639,1.934 -0.957,4.039 -0.957,6.316 0,2.317 0.332,4.445 0.998,6.378 0.664,1.935 1.629,3.58 2.89,4.939 1.262,1.358 2.799,2.397 4.61,3.117 1.81,0.72 3.867,1.08 6.172,1.08 3.127,0 5.812,-0.635 8.054,-1.904 2.244,-1.268 3.942,-3.071 5.094,-5.411 1.152,-2.338 1.729,-5.085 1.729,-8.241 0,-4.787 -1.297,-8.579 -3.889,-11.377"
             style="fill:#fac731;fill-opacity:1;fill-rule:nonzero;stroke:none"
             id="path162"
             inkscape:connector-curvature="0" /></g></g></g></g></svg>